<svg xmlns="http://www.w3.org/2000/svg" width="190" height="176" viewBox="0 0 190 176">
    <defs>
        <linearGradient id="a" x1="10.856%" x2="89.147%" y1="101.732%" y2="-1.736%">
            <stop offset="0%" stop-color="gray" stop-opacity=".25"/>
            <stop offset="54%" stop-color="gray" stop-opacity=".12"/>
            <stop offset="100%" stop-color="gray" stop-opacity=".1"/>
        </linearGradient>
        <linearGradient id="b" x1="53321%" x2="53321%" y1="68858%" y2="49028%">
            <stop offset="0%" stop-color="gray" stop-opacity=".25"/>
            <stop offset="54%" stop-color="gray" stop-opacity=".12"/>
            <stop offset="100%" stop-color="gray" stop-opacity=".1"/>
        </linearGradient>
        <linearGradient id="c" x1="-60279%" x2="-60279%" y1="42780%" y2="22950%">
            <stop offset="0%" stop-color="gray" stop-opacity=".25"/>
            <stop offset="54%" stop-color="gray" stop-opacity=".12"/>
            <stop offset="100%" stop-color="gray" stop-opacity=".1"/>
        </linearGradient>
        <linearGradient id="d" x1="37650%" x2="37650%" y1="42750%" y2="24261%">
            <stop offset="0%" stop-color="gray" stop-opacity=".25"/>
            <stop offset="54%" stop-color="gray" stop-opacity=".12"/>
            <stop offset="100%" stop-color="gray" stop-opacity=".1"/>
        </linearGradient>
        <linearGradient id="e" x1="331350%" x2="331350%" y1="70250%" y2="51761%">
            <stop offset="0%" stop-color="gray" stop-opacity=".25"/>
            <stop offset="54%" stop-color="gray" stop-opacity=".12"/>
            <stop offset="100%" stop-color="gray" stop-opacity=".1"/>
        </linearGradient>
    </defs>
    <g fill="none" fill-rule="nonzero">
        <path fill="url(#a)" d="M82.358.238L3.366.433a3.224 3.224 0 0 0-2.293.97 3.312 3.312 0 0 0-.945 2.33l.359 149.749c.002.873.346 1.709.956 2.325.61.615 1.438.96 2.299.957l78.991-.195a3.224 3.224 0 0 0 2.295-.97c.607-.62.947-1.458.943-2.331l-.358-149.75a3.312 3.312 0 0 0-.957-2.323 3.223 3.223 0 0 0-2.298-.957z" opacity=".5" transform="translate(49 10)"/>
        <rect width="84" height="152" x="50" y="13" fill="#FFF" rx="13.64" transform="rotate(-.14 92 89)"/>
        <path fill="#6C63FF" d="M112.877 16.036c-.493 3.342-3.332 5.822-6.685 5.841l-28.966.07c-3.35-.006-6.197-2.47-6.706-5.807l-15.342.039a3.174 3.174 0 0 0-2.25.944A3.22 3.22 0 0 0 52 19.395l.333 138.403a3.22 3.22 0 0 0 .939 2.268c.6.6 1.41.937 2.256.934l73.294-.179a3.174 3.174 0 0 0 2.25-.944 3.22 3.22 0 0 0 .928-2.272l-.333-138.403a3.22 3.22 0 0 0-.938-2.267 3.174 3.174 0 0 0-2.255-.935l-15.597.036z" opacity=".4"/>
        <rect width="19" height="1" x="82" y="18" fill="#DBDBDB" rx=".5" transform="rotate(-.86 91.5 18.5)"/>
        <circle cx="105.5" cy="18.5" r="1" fill="#DBDBDB" transform="rotate(-.86 105.5 18.5)"/>
        <path fill="url(#b)" d="M47.776 23.911C47.78 12.601 39.758 2.86 28.612.64 17.465-1.58 6.294 4.339 1.922 14.78c-4.37 10.441-.726 22.5 8.708 28.811l.014.106a8.168 8.168 0 0 0 2.704 1.711l.032-.106c1.116.96 5.818 2.48 11.218 2.465h.118c3.42 0 7.135-.6 10.401-2.359 0 0 .03-.062.073-.18a8.495 8.495 0 0 0 2.248-1.531l.038-.269a23.664 23.664 0 0 0 10.3-19.517z" opacity=".5" transform="translate(55 98)"/>
        <circle cx="79" cy="122" r="23" fill="#F5F5F5"/>
        <path fill="#FDA57D" d="M69.322 131s-5.542.445-4.075 10.349A7.98 7.98 0 0 0 67.884 143L71 132.651 69.322 131zM87.678 131s5.542.445 4.075 10.349A7.98 7.98 0 0 1 89.116 143L86 132.647 87.678 131z"/>
        <path fill="#333" d="M70.054 115.007s-2.623 7.498-4.054 6.787c0 0 13.807 11.714 26 0 0 0-2.148-3.749-5.248-6.794l-16.698.007z"/>
        <circle cx="79" cy="114" r="10" fill="#333"/>
        <path fill="#000" d="M87.728 131H70.021l-1.653 6.926s-.97 3.206.239 4.616c1.209 1.41 12.488 4.617 20.782.234a8.841 8.841 0 0 0 .238-5.77c-.955-3.232-.238-.234-.238-.234L87.729 131z" opacity=".1"/>
        <path fill="#000" d="M87.73 131H70.022l-1.653 6.926s-.97 3.206.239 4.616c1.209 1.41 12.488 4.617 20.782.234a8.841 8.841 0 0 0 .238-5.77c-.955-3.232-.238-.234-.238-.234L87.73 131z" opacity=".1"/>
        <path fill="#6C63FF" d="M87.73 131H70.022l-1.653 6.926s-.97 3.206.239 4.616c1.209 1.41 12.488 4.617 20.782.234a8.841 8.841 0 0 0 .238-5.77c-.955-3.232-.238-.234-.238-.234L87.73 131z"/>
        <path fill="#000" d="M75.005 125H82v6.7c0 .61-.245 1.195-.68 1.626a2.333 2.333 0 0 1-1.642.674h-2.356A2.31 2.31 0 0 1 75 131.7V125h.005z" opacity=".1"/>
        <path fill="#FDA57D" d="M75.005 125H82v6.7c0 .61-.245 1.195-.68 1.626a2.333 2.333 0 0 1-1.642.674h-2.356A2.31 2.31 0 0 1 75 131.7V125h.005z"/>
        <path fill="#000" d="M75 125.569c2.256.57 4.74.575 7 .013V125h-7v.569z" opacity=".1"/>
        <circle cx="79" cy="116" r="10" fill="#FDA57D"/>
        <path fill="#333" d="M69 112h19s-1.622-7.454-8.804-6.978S69 112 69 112z"/>
        <ellipse cx="69" cy="116" fill="#FDA57D" rx="1" ry="2"/>
        <ellipse cx="89" cy="116" fill="#FDA57D" rx="1" ry="2"/>
        <path fill="#000" d="M69 112h19s-1.622-7.454-8.804-6.978S69 112 69 112z" opacity=".1"/>
        <path fill="url(#c)" d="M.227 23.964C.223 12.654 8.244 2.913 19.39.693c11.146-2.22 22.318 3.699 26.689 14.14 4.371 10.441.726 22.5-8.708 28.811l-.014.106a8.167 8.167 0 0 1-2.704 1.73l-.031-.106c-1.117.96-5.818 2.48-11.219 2.465h-.118c-3.42 0-7.135-.6-10.4-2.359 0 0-.03-.062-.073-.18a8.495 8.495 0 0 1-2.248-1.531l-.039-.269a23.664 23.664 0 0 1-10.3-19.536z" opacity=".5" transform="translate(83 34)"/>
        <circle cx="107" cy="58" r="23" fill="#F5F5F5"/>
        <path fill="#BE7C5E" d="M97.322 67s-5.542.445-4.075 10.353A7.98 7.98 0 0 0 95.884 79L99 68.647 97.322 67zM116.678 67s5.542.445 4.075 10.353A7.98 7.98 0 0 1 118.116 79L115 68.647 116.678 67z"/>
        <path fill="#333" d="M98.51 51.012s-.428 1.197-1.032 2.572c-1.32 3.04.187 14.663 3.342 15.9 3.542 1.403 8.198 2.282 13.037.582 4.203-1.478 5.5-14.73 2.527-17.946-.349-.379-.713-.755-1.094-1.12l-16.78.012z"/>
        <circle cx="107" cy="50" r="10" fill="#333"/>
        <path fill="#000" d="M115.73 67H98.022l-1.653 6.926s-.97 3.206.239 4.616c1.209 1.41 12.488 4.617 20.782.234a8.841 8.841 0 0 0 .238-5.77c-.955-3.232-.238-.234-.238-.234L115.73 67z" opacity=".1"/>
        <path fill="#000" d="M116.73 67H99.022l-1.653 6.926s-.97 3.206.239 4.616c1.209 1.41 12.488 4.617 20.782.234a8.841 8.841 0 0 0 .238-5.77c-.955-3.232-.238-.234-.238-.234L116.73 67z" opacity=".1"/>
        <path fill="#F55F44" d="M116.728 67H99.021l-1.653 6.926s-.97 3.206.239 4.616c1.209 1.41 12.488 4.617 20.782.234a8.841 8.841 0 0 0 .238-5.77c-.955-3.232-.238-.234-.238-.234L116.729 67z"/>
        <path fill="#000" d="M104.01 61H111v6.7c0 1.27-1.04 2.3-2.322 2.3h-2.356A2.31 2.31 0 0 1 104 67.7V61h.01z" opacity=".1"/>
        <path fill="#BE7C5E" d="M104.01 61H111v6.7c0 1.27-1.04 2.3-2.322 2.3h-2.356a2.333 2.333 0 0 1-1.642-.674A2.289 2.289 0 0 1 104 67.7V61h.01z"/>
        <path fill="#000" d="M104 61.569c2.256.57 4.74.575 7 .013V61h-7v.569z" opacity=".1"/>
        <circle cx="107" cy="52" r="10" fill="#BE7C5E"/>
        <path fill="#333" d="M98 48h19s-1.622-7.454-8.804-6.978S98 48 98 48z"/>
        <ellipse cx="98" cy="52" fill="#BE7C5E" rx="1" ry="2"/>
        <ellipse cx="117" cy="52" fill="#BE7C5E" rx="1" ry="2"/>
        <path fill="#000" d="M98 48h19s-1.622-7.454-8.804-6.978S98 48 98 48z" opacity=".1"/>
        <path fill="url(#d)" d="M0 .026V33.97h54.02S58.008 41.74 64.865 44c0 0-2.189-5.504.096-10.03H80V.026H0z" opacity=".5" transform="translate(1 38)"/>
        <path fill="#FFF" d="M3 39v32.368h53.571s0 6.474 6.429 8.632c0 0-2.143-4.316 0-8.632h15V39H3z"/>
        <path fill="#6C63FF" d="M10 45h43v4H10zM10 52h58v4H10zM10 58h52v4H10z"/>
        <path fill="url(#e)" d="M80 .026V33.97H25.982S21.994 41.74 15.135 44c0 0 2.189-5.504-.096-10.03H0V.026h80z" opacity=".5" transform="translate(105 105)"/>
        <path fill="#FFF" d="M183 106v32.368h-53.571s0 6.474-6.429 8.632c0 0 2.143-4.316 0-8.632h-15V106h75z"/>
        <path fill="#6C63FF" d="M116 112h43v4h-43zM116 119h58v4h-58zM116 125h52v4h-52z"/>
        <g fill="#47E6B1" opacity=".5">
            <path d="M19.647 172h1v4h-1z"/>
            <path d="M22 173.647v1h-4v-1z"/>
        </g>
        <g fill="#47E6B1" opacity=".5">
            <path d="M152.647 46h1v4h-1z"/>
            <path d="M155 47.647v1h-4v-1z"/>
        </g>
        <g fill="#47E6B1" opacity=".5">
            <path d="M167.647 148h1v4h-1z"/>
            <path d="M170 149.647v1h-4v-1z"/>
        </g>
        <g fill="#47E6B1" opacity=".5">
            <path d="M122.647 0h1v4h-1z"/>
            <path d="M125 1.647v1h-4v-1z"/>
        </g>
        <path fill="#4D8AF0" d="M61.753 171.531a.826.826 0 0 1-.45-.998.414.414 0 0 0-.727-.367.398.398 0 0 0-.045.081.826.826 0 0 1-.998.45.414.414 0 0 0-.367.727.398.398 0 0 0 .081.045c.381.17.574.6.45.998a.414.414 0 0 0 .727.367.398.398 0 0 0 .045-.081.826.826 0 0 1 .998-.45.414.414 0 0 0 .367-.727.398.398 0 0 0-.081-.045zM13.75 95.523a.82.82 0 0 1-.449-.993.412.412 0 0 0-.252-.504.415.415 0 0 0-.474.14.395.395 0 0 0-.045.08.826.826 0 0 1-.998.447.414.414 0 0 0-.507.25.41.41 0 0 0 .222.518.82.82 0 0 1 .45.993.394.394 0 0 0-.019.092.415.415 0 1 0 .791.204.826.826 0 0 1 .999-.448.414.414 0 0 0 .507-.25.41.41 0 0 0-.141-.473.398.398 0 0 0-.083-.056zM39.75 116.523a.82.82 0 0 1-.449-.993.412.412 0 0 0-.252-.504.415.415 0 0 0-.474.14.395.395 0 0 0-.045.08.826.826 0 0 1-.998.447.414.414 0 0 0-.507.25.41.41 0 0 0 .222.518.82.82 0 0 1 .45.993.394.394 0 0 0-.019.092.415.415 0 1 0 .791.204.826.826 0 0 1 .999-.448.414.414 0 0 0 .507-.25.41.41 0 0 0-.141-.473.398.398 0 0 0-.083-.056zM189.75 172.523a.82.82 0 0 1-.449-.993.412.412 0 0 0-.252-.504.415.415 0 0 0-.474.14.395.395 0 0 0-.045.08.826.826 0 0 1-.998.447.414.414 0 0 0-.507.25.41.41 0 0 0 .222.518.82.82 0 0 1 .45.993.394.394 0 0 0-.019.092.415.415 0 1 0 .791.204.826.826 0 0 1 .999-.448.414.414 0 0 0 .507-.25.41.41 0 0 0-.141-.473.398.398 0 0 0-.083-.056z" opacity=".5"/>
        <circle cx="1.5" cy="158.5" r="1.5" fill="#F55F44" opacity=".5"/>
        <circle cx="164.5" cy="15.5" r="1.5" fill="#4D8AF0" opacity=".5"/>
        <circle cx="24.5" cy="18.5" r="1.5" fill="#47E6B1" opacity=".5"/>
        <circle cx="165.5" cy="82.5" r="1.5" fill="#F55F44" opacity=".5"/>
    </g>
</svg>
