<svg xmlns="http://www.w3.org/2000/svg" width="167" height="176" viewBox="0 0 167 176">
    <defs>
        <linearGradient id="a" x1="49.998%" x2="49.998%" y1="100%" y2="0%">
            <stop offset="0%" stop-color="gray" stop-opacity=".25"/>
            <stop offset="54%" stop-color="gray" stop-opacity=".12"/>
            <stop offset="100%" stop-color="gray" stop-opacity=".1"/>
        </linearGradient>
        <linearGradient id="b" x1="19180%" x2="19180%" y1="16304%" y2="0%">
            <stop offset="0%" stop-color="gray" stop-opacity=".25"/>
            <stop offset="54%" stop-color="gray" stop-opacity=".12"/>
            <stop offset="100%" stop-color="gray" stop-opacity=".1"/>
        </linearGradient>
        <linearGradient id="c" x1="56367%" x2="56367%" y1="21547%" y2="88%">
            <stop offset="0%" stop-color="gray" stop-opacity=".25"/>
            <stop offset="54%" stop-color="gray" stop-opacity=".12"/>
            <stop offset="100%" stop-color="gray" stop-opacity=".1"/>
        </linearGradient>
        <linearGradient id="d" x1="63988%" x2="63988%" y1="47030%" y2="25570%">
            <stop offset="0%" stop-color="gray" stop-opacity=".25"/>
            <stop offset="54%" stop-color="gray" stop-opacity=".12"/>
            <stop offset="100%" stop-color="gray" stop-opacity=".1"/>
        </linearGradient>
        <linearGradient id="e" x1="45370%" x2="45370%" y1="78090%" y2="65004%">
            <stop offset="0%" stop-color="gray" stop-opacity=".25"/>
            <stop offset="54%" stop-color="gray" stop-opacity=".12"/>
            <stop offset="100%" stop-color="gray" stop-opacity=".1"/>
        </linearGradient>
        <linearGradient id="f" x1="48873%" x2="48873%" y1="78090%" y2="65004%">
            <stop offset="0%" stop-color="gray" stop-opacity=".25"/>
            <stop offset="54%" stop-color="gray" stop-opacity=".12"/>
            <stop offset="100%" stop-color="gray" stop-opacity=".1"/>
        </linearGradient>
        <linearGradient id="g" x1="25949%" x2="35792%" y1="69831%" y2="69831%">
            <stop offset="0%" stop-color="gray" stop-opacity=".25"/>
            <stop offset="54%" stop-color="gray" stop-opacity=".12"/>
            <stop offset="100%" stop-color="gray" stop-opacity=".1"/>
        </linearGradient>
        <linearGradient id="h" x1="23532%" x2="23532%" y1="69690%" y2="56604%">
            <stop offset="0%" stop-color="gray" stop-opacity=".25"/>
            <stop offset="54%" stop-color="gray" stop-opacity=".12"/>
            <stop offset="100%" stop-color="gray" stop-opacity=".1"/>
        </linearGradient>
        <linearGradient id="i" x1="27035%" x2="27035%" y1="69690%" y2="56604%">
            <stop offset="0%" stop-color="gray" stop-opacity=".25"/>
            <stop offset="54%" stop-color="gray" stop-opacity=".12"/>
            <stop offset="100%" stop-color="gray" stop-opacity=".1"/>
        </linearGradient>
        <linearGradient id="j" x1="31981%" x2="31981%" y1="69688%" y2="56194%">
            <stop offset="0%" stop-color="gray" stop-opacity=".25"/>
            <stop offset="54%" stop-color="gray" stop-opacity=".12"/>
            <stop offset="100%" stop-color="gray" stop-opacity=".1"/>
        </linearGradient>
        <linearGradient id="k" x1="84016%" x2="97220%" y1="68209%" y2="68209%">
            <stop offset="0%" stop-color="gray" stop-opacity=".25"/>
            <stop offset="54%" stop-color="gray" stop-opacity=".12"/>
            <stop offset="100%" stop-color="gray" stop-opacity=".1"/>
        </linearGradient>
    </defs>
    <g fill="none" fill-rule="evenodd" transform="translate(0 10)">
        <path fill="url(#a)" fill-rule="nonzero" d="M29 42h61v58H29z"/>
        <path fill="#FFF" fill-rule="nonzero" d="M30 44h58v55H30z"/>
        <path fill="#6C63FF" fill-rule="nonzero" d="M33 46h54v51H33z"/>
        <path fill="#41B883" fill-rule="nonzero" d="M69.4 57H76L59.5 84 43 57h12.621l3.877 6.262L63.293 57z"/>
        <path fill="#41B883" fill-rule="nonzero" d="M43 57l16.5 27L76 57h-6.6l-9.9 16.2L49.519 57z"/>
        <path fill="#35495E" fill-rule="nonzero" d="M49 57l10.041 18L69 57h-6.141l-3.818 6.924-3.9-6.924z"/>
        <path fill="url(#b)" fill-rule="nonzero" d="M.053 0h78.81v34.795H.053z" opacity=".5" transform="translate(1)"/>
        <path fill="#FFF" fill-rule="nonzero" d="M3 1h76v33H3z"/>
        <path fill="#6C63FF" fill-rule="nonzero" d="M4 3h72v29H4z"/>
        <path fill="#FFF" fill-rule="nonzero" d="M65.714 12l2.286.013-4.596 5.954a2.56 2.56 0 0 0-.363.476A10.664 10.664 0 0 0 62.595 20h-2.092s.326-1.114.312-1.701c-.01-.52-.29-1.036-.445-1.557-.156-.52-.37-1.556-.37-1.556h2.15l.296 1.13L65.714 12"/>
        <path fill="#FFF" fill-rule="nonzero" d="M60.35 13.055c.401.246.65 1.61.65 1.61s-2.106.032-3.252.032h-.99l-1.204 5.326h-1.838s1.143-5.79 1.415-6.839c.088-.34.6-.28 1.465-.28h1.382c.892 0 1.934-.118 2.372.153v-.002zm-8.562 2.598a1.138 1.138 0 0 0-.193-.738c-.213-.337-.415-.415-.98-.432-1.599-.052-1.567 1.153-1.567 1.153l2.74.017zm1.732-1.38c.234.865-.212 2.88-.212 2.88s-2.338-.04-3.614 0c-.397.012-.871-.044-.99.144-.166.264.061.669.253.84.191.17.652.216.807.24 1.036.134 3.206.034 3.206.034l-.376 1.694s-3.065.156-4.598-.216a1.552 1.552 0 0 1-.778-.433c-.053-.058-.098-.136-.147-.203a1.901 1.901 0 0 1-.212-.372c-.35-.95.04-2.77.425-3.743.045-.112.1-.255.16-.379.059-.123.135-.322.193-.413.057-.09.09-.104.13-.162a2.41 2.41 0 0 1 .153-.197c.148-.163.314-.308.495-.433.637-.486 1.794-.865 3.188-.72.523.054 1.312.244 1.7.792.101.205.173.423.213.649l.004-.002zm-8.434-1.374h1.784s-.995 4.798-1.501 7.14h-2.051c-1.433 0-2.71.181-3.254-.866-.545-1.047-.024-2.683.212-3.816.168-.803.519-2.44.519-2.44l1.847-.018s-.523 2.553-.74 3.827c-.078.457-.238.887-.07 1.225.168.337.383.344 1.063.359h.92L45.09 12.9l-.004-.002zm-8.342 3.464c.187-.675.459-1.407.425-2.017a1.731 1.731 0 0 0-.92-1.367 2.326 2.326 0 0 0-2.405.575c-.501.554-.671 1.199-.85 2.088-.132.66-.24 1.357 0 1.872.425.91 1.754.711 3.188.72.213-.58.387-1.229.566-1.871h-.004zm2.476-2.664c.212 1.515-.578 3.172-1.116 4.62.548.05 1.03 0 1.063.034.032.035-.368 1.73-.508 1.73-.425.012-1.88.025-2.48.025-1.965 0-3.803.13-4.739-.866a3.16 3.16 0 0 1-.707-1.584 6.822 6.822 0 0 1 .212-2.446c.152-.654.39-1.284.708-1.872.825-1.467 2.261-2.555 4.676-2.304.545.07 1.072.24 1.556.504.03.018.13.1.153.115.565.365 1.082 1.242 1.19 2.047l-.008-.003zm-8.692-.783c-.119.552-.238 1.175-.363 1.72h-1.981c.153-.603.27-1.203.425-1.73h1.913l.006.01zm-2.414 2.211h1.913c-.249 1.406-.744 3.678-1.13 5.255-.243.989-.405 1.71-1.064 2.233-.06.048-.093.024-.142.071-.121.117-.68.254-.99.288-.567.035-1.135.035-1.701 0 .162-.603.344-1.326.489-1.867 1.509.186 1.547-1.266 1.838-2.663.17-.807.68-2.988.778-3.312l.009-.005z"/>
        <path fill="#21609B" fill-rule="nonzero" d="M25 19.566l-.04.111c-.703 1.416-1.947 2.285-3.724 2.322a5.053 5.053 0 0 1-2.14-.443 5.605 5.605 0 0 1-2.57-2.506c-.734-1.474-.856-3.521.66-5.05.023 0-.187.332-.163.332l-.043.142c-1.1 3.568 2.291 6.624 5.586 6.273a4.268 4.268 0 0 0 2.421-1.178"/>
        <path fill="#21609B" fill-rule="nonzero" d="M21.962 18.201c.765-.007 1.498-.36 2.038-.982-.415 1.207-1.613 1.982-3.219 1.735-1.347-.206-2.628-1.762-2.765-3.32-.097-1.135.247-1.815.816-2.634-.149.3-.246.63-.288.973-.214 2.466 1.718 4.228 3.418 4.228"/>
        <path fill="#21609B" fill-rule="nonzero" d="M24 14.853c-.126.341-.858.99-1.18 1.069-1.278.32-2.098-.391-2.53-1.2a4.043 4.043 0 0 1-.21-.535c-.167-.663-.091-1.667.406-2.187-.14.461-.172.959-.092 1.44.075.307.188.599.337.866.191.343.458.62.771.8.123.088.253.16.388.217.323.111 1.001.403 2.097-.47"/>
        <path fill="url(#c)" fill-rule="nonzero" d="M97 0h46v46H97z"/>
        <path fill="#FFF" fill-rule="nonzero" d="M98 2h43v43H98z"/>
        <path fill="#6C63FF" fill-rule="nonzero" d="M100 4h39v39h-39z"/>
        <path fill="#E23237" fill-rule="nonzero" d="M105 15.969L118.816 11 133 15.88l-2.3 18.465L118.815 41l-11.714-6.564z"/>
        <path fill="#B52E31" fill-rule="nonzero" d="M135 15.88L120 11v30l12.567-6.644L135 15.882z"/>
        <path fill="#FFF" fill-rule="nonzero" d="M118.792 14L110 32.946l3.285-.054 1.764-4.274h7.889l1.922 4.328L128 33l-9.217-19h.009zm.023 6.07l2.971 6.018h-5.585l2.614-6.016v-.002z"/>
        <path fill="url(#d)" fill-rule="nonzero" d="M105 55h61v46h-61z"/>
        <path fill="#FFF" fill-rule="nonzero" d="M106 55h58v43h-58z"/>
        <path fill="#6C63FF" fill-rule="nonzero" d="M108 58h54v39h-54z"/>
        <path fill="#FFF" fill-rule="nonzero" d="M120 76.393c0 2.434 2.42 4.714 6.248 6.006-.778 3.763-.16 6.802 1.939 7.993 2.154 1.222 5.375.391 8.437-2.207 2.969 2.51 5.972 3.505 8.075 2.314 2.154-1.214 2.829-4.453 2.053-8.338 4-1.277 6.248-3.208 6.248-5.68 0-2.376-2.424-4.44-6.205-5.725.862-4.043.153-7.006-2.032-8.245-2.104-1.195-5.15-.168-8.187 2.387-3.132-2.734-6.144-3.576-8.333-2.345-2.111 1.184-2.723 4.274-1.967 8.113-3.7 1.264-6.27 3.359-6.276 5.727z"/>
        <path fill="#53C1DE" fill-rule="nonzero" d="M144.855 71.445c-.308-.107-.62-.207-.933-.298.052-.214.101-.428.147-.644.718-3.452.264-6.238-1.311-7.159-1.509-.884-3.988.026-6.492 2.207-.247.216-.489.438-.724.665a14.264 14.264 0 0 0-.48-.449c-2.61-2.35-5.232-3.344-6.82-2.432-1.513.876-1.97 3.49-1.345 6.768.063.325.134.648.213.969-.37.105-.73.214-1.065.337-3.074 1.073-5.039 2.751-5.045 4.507 0 1.81 2.093 3.632 5.288 4.744.258.09.52.173.784.25-.087.344-.163.691-.23 1.04-.616 3.22-.152 5.772 1.353 6.654 1.554.91 4.169-.012 6.722-2.243.202-.176.404-.362.608-.56.254.248.515.489.782.723 2.457 2.147 4.889 3.006 6.393 2.147 1.558-.902 2.072-3.65 1.426-6.985-.05-.255-.106-.515-.17-.781.183-.055.363-.11.539-.168 3.327-1.103 5.505-2.895 5.505-4.73 0-1.759-2.012-3.467-5.14-4.562h-.005z"/>
        <path fill="#FFF" fill-rule="nonzero" d="M143.623 79.96c-.15.05-.304.1-.46.148a29.42 29.42 0 0 0-1.373-3.628c.523-1.158.972-2.35 1.342-3.57.28.086.55.176.804.27 2.528.918 4.068 2.27 4.064 3.306 0 1.105-1.674 2.532-4.383 3.46l.006.013zm-1.13 2.322c.27 1.444.304 2.75.12 3.78-.164.917-.494 1.526-.9 1.77-.864.518-2.705-.167-4.687-1.96a16.45 16.45 0 0 1-.685-.657c.832-.956 1.6-1.97 2.301-3.034a26.185 26.185 0 0 0 3.704-.592c.055.235.104.465.147.69v.003zm-11.373 5.417c-.842.309-1.514.315-1.918.07-.86-.523-1.206-2.52-.715-5.22.059-.319.126-.634.2-.948 1.215.277 2.446.467 3.685.57a29.507 29.507 0 0 0 2.337 3.033c-.17.171-.344.338-.522.5-1.064.966-2.129 1.649-3.067 1.993v.002zm-3.922-7.799c-1.332-.48-2.431-1.102-3.183-1.78-.677-.61-1.017-1.214-1.015-1.701 0-1.05 1.491-2.363 3.97-3.257.31-.112.624-.214.942-.307a30.09 30.09 0 0 0 1.322 3.612 30.532 30.532 0 0 0-1.358 3.654c-.23-.069-.455-.144-.678-.225v.004zm1.351-9.399c-.506-2.746-.159-4.814.702-5.331.916-.55 2.936.246 5.062 2.23.137.126.274.26.402.397a29.04 29.04 0 0 0-2.34 3.005c-1.227.11-2.446.304-3.65.58-.067-.293-.129-.587-.184-.883l.008.002zm11.788 3.079c-.268-.483-.544-.96-.828-1.432.872.117 1.708.273 2.492.464a26.782 26.782 0 0 1-.883 2.457 53.545 53.545 0 0 0-.781-1.49zm-4.798-4.912a25.89 25.89 0 0 1 1.608 2.035 32.308 32.308 0 0 0-3.232-.01c.533-.731 1.08-1.41 1.628-2.025h-.004zm-4.85 4.889c-.267.485-.526.975-.775 1.47a27.84 27.84 0 0 1-.862-2.476c.78-.18 1.607-.326 2.48-.437-.294.476-.574.957-.842 1.443zm.843 7.297c-.846-.1-1.687-.244-2.519-.433.244-.815.545-1.659.895-2.52.245.5.502.993.771 1.48.27.488.552.978.847 1.473h.006zm4 3.477a28.36 28.36 0 0 1-1.64-2.062 37.554 37.554 0 0 0 3.257.004c-.507.714-1.05 1.4-1.624 2.056l.006.002zm5.594-6.434c.346.823.65 1.664.91 2.52-.842.195-1.694.343-2.552.445.291-.477.573-.961.845-1.45.272-.49.54-.995.803-1.513l-.006-.002zm-1.808.899c-.417.75-.857 1.486-1.319 2.207-.804.059-1.65.086-2.504.084a36.15 36.15 0 0 1-2.476-.09 34.91 34.91 0 0 1-2.49-4.53 34.272 34.272 0 0 1 2.502-4.51 31.331 31.331 0 0 1 4.984.017c.463.718.9 1.452 1.31 2.202.412.75.801 1.518 1.168 2.304a37.123 37.123 0 0 1-1.181 2.31l.006.006zm2.452-13.622c.914.555 1.264 2.78.679 5.697-.039.19-.08.38-.125.567a26.88 26.88 0 0 0-3.654-.615 28.503 28.503 0 0 0-2.303-3.022c.205-.206.416-.406.631-.6 2.024-1.83 3.913-2.548 4.772-2.027z"/>
        <path fill="#53C1DE" fill-rule="nonzero" d="M136.508 75a2.5 2.5 0 1 1-.016 5 2.5 2.5 0 0 1 .016-5"/>
        <g fill-rule="nonzero" opacity=".7">
            <path fill="url(#e)" d="M7.44.008V26.98H.09V.007h1.837z" opacity=".1" transform="translate(120.804 120)"/>
            <path fill="url(#f)" d="M7.434.008V26.98H.08V.007h1.84z" opacity=".1" transform="translate(113 120)"/>
        </g>
        <path fill="url(#g)" fill-rule="nonzero" d="M20.769 13.402a3.966 3.966 0 0 0-1.608-4.236c-.371-.209-.731-.438-1.078-.685-.545-.452-.848-1.119-1.08-1.783-.538-1.597-.708-3.387-1.654-4.83C14.488.557 12.804.172 11.32.043c-.541-.048-1.11-.073-1.606.148-.83.37-1.224 1.334-1.26 2.229-.036.894.2 1.779.259 2.673.06.895-.102 1.882-.772 2.484-.67.602-1.63.677-2.516.798-1.164.16-2.307.44-3.411.836-.927.333-1.958.933-2.002 1.903-.036.794.613 1.425 1.103 2.056.912 1.182 1.368 2.737 1.06 4.181-.307 1.445-1.368 2.747-1.559 4.244-.07.38-.016.772.153 1.12.149.237.345.442.577.602.573.437 1.211.786 1.752 1.255 1.128.984 1.741 2.416 2.212 3.83.045.135.085.273.13.417h-1.11c-2.265.006-4.1 1.814-4.106 4.047.006 2.233 1.84 4.041 4.106 4.047h11.088c2.266-.006 4.1-1.814 4.107-4.047-.006-2.233-1.841-4.041-4.107-4.047h-3.04c.72-.949 1.47-1.84 2.58-2.205 1.11-.366 2.452-.15 3.321-.914.407-.393.672-.907.754-1.463a4.335 4.335 0 0 0-.486-2.914c-.35-.615-.861-1.173-.972-1.869-.095-.596.123-1.198.424-1.724.834-1.505 2.317-2.678 2.77-4.327z" opacity=".7" transform="translate(11 111)"/>
        <path fill="#4DB6AC" fill-rule="nonzero" d="M22.843 113.032c-.519-.048-1.067-.071-1.539.146-.794.361-1.172 1.308-1.208 2.186-.036.877.192 1.742.247 2.62.056.877-.098 1.841-.74 2.435-.643.594-1.56.665-2.412.783-1.115.155-2.21.43-3.268.817-.888.325-1.877.915-1.922 1.865-.034.777.59 1.399 1.057 2.018.875 1.157 1.31 2.683 1.014 4.107-.297 1.424-1.31 2.69-1.494 4.158-.067.373-.015.757.147 1.1.143.231.33.432.553.588.548.43 1.161.77 1.68 1.233 1.082.966 1.667 2.366 2.12 3.752.444 1.36.793 2.75 1.043 4.16.933-.604 2.135-.596 3.134-1.086 2.12-1.048 2.83-4.088 5.067-4.834 1.068-.357 2.349-.148 3.183-.895.391-.387.645-.894.722-1.441a4.331 4.331 0 0 0-.472-2.855c-.335-.602-.824-1.148-.93-1.83-.093-.583.119-1.175.4-1.691.805-1.474 2.227-2.616 2.66-4.24a3.93 3.93 0 0 0-1.534-4.145c-.356-.206-.7-.43-1.032-.674-.52-.443-.82-1.095-1.035-1.748-.516-1.564-.68-3.32-1.586-4.733-.826-1.29-2.431-1.665-3.855-1.796z"/>
        <path stroke="#535461" d="M22.577 113s2.236 26.458-3.577 31" opacity=".6"/>
        <rect width="19" height="8" x="12" y="140" fill="#6C63FF" fill-rule="nonzero" rx="4"/>
        <path stroke="#535461" d="M12 122.032s4.952-.554 11 2.968M22 128c2.087-2.703 5.348-4.515 9-5M12 133.31s6.851-1.04 10 .69M22 137s3.765-1.977 8-.372" opacity=".6"/>
        <g fill-rule="nonzero" opacity=".7">
            <path fill="url(#h)" d="M.175.009V28.44h6.949V.009H5.386z" opacity=".1" transform="translate(46 120.086)"/>
            <path fill="url(#i)" d="M.183.009V28.44H7.13V.009H5.394z" opacity=".1" transform="translate(53.375 120.086)"/>
            <path fill="url(#j)" d="M13.822 27.675L8.059 5.397 7.724 4.1 6.717.204.004 2.051l1.007 3.893.268 1.035 4.543 17.568.337 1.299.95 3.676z" opacity=".1" transform="translate(60.538 119)"/>
        </g>
        <path fill="#535461" fill-rule="nonzero" d="M47 121h6v26h-6z"/>
        <path fill="#6C63FF" fill-rule="nonzero" d="M47 125h6v1h-6zM47 142h6v1h-6z"/>
        <path fill="#000" fill-rule="nonzero" d="M52 121h2v26h-2z" opacity=".1"/>
        <path fill="#535461" fill-rule="nonzero" d="M54 121h6v26h-6z"/>
        <path fill="#6C63FF" fill-rule="nonzero" d="M54 125h6v1h-6zM54 142h6v1h-6z"/>
        <path fill="#000" fill-rule="nonzero" d="M60 121h2v26h-2z" opacity=".1"/>
        <path fill="#535461" fill-rule="nonzero" d="M59.752 122.212l5.797-1.546 6.699 25.122-5.797 1.546z"/>
        <path fill="#6C63FF" fill-rule="nonzero" d="M61.972 125.79l5.798-1.546.258.966-5.798 1.546zM65.972 141.79l5.798-1.546.258.966-5.798 1.546z"/>
        <path fill="#000" fill-rule="nonzero" d="M65.684 120.697l1.933-.516 6.699 25.122-1.933.516z" opacity=".1"/>
        <path fill="#535461" fill-rule="nonzero" d="M126 147h-6v-26h6z"/>
        <path fill="#6C63FF" fill-rule="nonzero" d="M126 126h-6v-1h6zM126 144h-6v-1h6z"/>
        <path fill="#000" fill-rule="nonzero" d="M122 147h-2v-26h2z" opacity=".1"/>
        <path fill="#535461" fill-rule="nonzero" d="M119 147h-6v-26h6z"/>
        <path fill="#6C63FF" fill-rule="nonzero" d="M119 126h-6v-1h6zM119 144h-6v-1h6z"/>
        <path fill="#000" fill-rule="nonzero" d="M115 147h-2v-26h2z" opacity=".1"/>
        <path fill="url(#k)" fill-rule="nonzero" d="M25.465 31.34H14.113l.15-1.328c3.208-2.992 5.279-10.973 5.279-10.973a1.027 1.027 0 0 0-.137.03c-1.887.394-3.22 1.198-4.155 2.163l.406-3.53c5.926-1.328 8.275-9.475 8.275-9.475-3.783.872-6.14 2.222-7.603 3.5l.576-5.186C20.91 7.97 25.057.378 25.057.378L24.9.344l.077-.053-.118.045c-4.427-.992-6.794 1.639-7.564 2.732l.057-.508c-.118.32-.231.64-.341.958v.012a74.152 74.152 0 0 0-1.498 4.799s-.183-4.643-4.887-5.858c0 0 .494 10.114 4.22 8.457a71.877 71.877 0 0 0-1.276 6.862l-.022.026.022-.02v.068a68.44 68.44 0 0 0-.268 2.245c.073-1.403-.175-5.46-4.773-9.284 0 0-6.108 11.168 4.31 13.365l.07.061-.017-.05.095.02.043-.573a62.556 62.556 0 0 0 .037 7.185l.032.48H1.618C-2.761 40.732 4.054 45.89 4.054 45.89h18.817c7.292-9.565 2.594-14.55 2.594-14.55z" opacity=".7" transform="translate(134 103)"/>
        <path stroke="#535461" stroke-width="3" d="M148.628 138s-2.785-13.541 3.372-31" opacity=".6"/>
        <path fill="#6C63FF" fill-rule="nonzero" d="M135.423 135h23.13s4.563 6.438-2.518 16h-18.25s-6.608-6.603-2.362-16z"/>
        <path fill="#4DB6AC" fill-rule="nonzero" d="M150.876 108.093s2.392-4.118 8.124-2.85c0 0-4.738 7.793-9 5.245l.876-2.395zM150 112.424s-.15-4.293-4-5.424c0 0 .404 9.365 3.455 7.83l.545-2.406zM148.441 120.198s.92-5.03 10.559-7.198c0 0-3.073 10.404-11 9.988l.441-2.79z"/>
        <path fill="#4DB6AC" fill-rule="nonzero" d="M147.945 124.496s.873-4.927-4.317-9.496c0 0-5.64 10.94 4.075 13l.242-3.504z"/>
        <path fill="#4DB6AC" fill-rule="nonzero" d="M148.015 130.985S147.405 124.3 154 123c0 0-2.407 9.335-5.995 11l.01-3.015z"/>
        <path stroke="#535461" d="M150 111s6.332-5.118 9-6M148 122s7.906-8.019 11-9M146 107s4.29 6.332 3.984 8M143 115s2.222 11.48 4 13M148 134s3.6-10.684 6-11" opacity=".3"/>
        <path fill="#000" fill-rule="nonzero" d="M158.514 135.036h-23.262c-.053.115-.102.222-.154.342h22.623s4.476 6.195-2.278 15.444h.537c7.122-9.438 2.534-15.786 2.534-15.786z" opacity=".1"/>
        <path fill="#E0E0E0" fill-rule="nonzero" d="M0 147h167v6H0z"/>
        <path fill="#E0E0E0" fill-rule="nonzero" d="M7 152h152v3H7z"/>
        <path fill="#000" fill-rule="nonzero" d="M7 152h152v1H7z" opacity=".1"/>
    </g>
</svg>
