<svg xmlns="http://www.w3.org/2000/svg" width="174" height="176" viewBox="0 0 174 176">
    <defs>
        <linearGradient id="a" x1="49.999%" x2="49.999%" y1="100.009%" y2="0%">
            <stop offset="0%" stop-color="gray" stop-opacity=".25"/>
            <stop offset="54%" stop-color="gray" stop-opacity=".12"/>
            <stop offset="100%" stop-color="gray" stop-opacity=".1"/>
        </linearGradient>
    </defs>
    <g fill="none" fill-rule="evenodd" transform="translate(1 12)">
        <path fill="#6C63FF" fill-rule="nonzero" d="M146 55h11v5h-11zM147 61h11v5h-11zM138 17h11v5h-11zM146 23h11v5h-11zM127 17h11v5h-11zM160 29h11v5h-11zM147 29h11v5h-11zM134 23h11v5h-11zM159 68h11v5h-11zM146 69h11v5h-11z" opacity=".2"/>
        <path fill="#6C63FF" fill-rule="nonzero" d="M26.42 53s14.668 13.985 6.389 34.73C24.529 108.474 47 143 47 143s-.24-.034-.686-.109c-30.124-5.07-45.091-37.92-28.333-62.317 6.22-9.081 11.332-19.724 8.44-27.574z"/>
        <path stroke="#535461" stroke-width="2" d="M25.257 53s7.942 17.144 0 31.127C17.315 98.111 23.897 137.367 45 143"/>
        <path fill="#6C63FF" fill-rule="nonzero" d="M0 110.176s16.257-2.566 17.738 11.873C19.22 136.49 49 138.49 49 138.49s-.194.131-.558.368c-24.588 15.99-48.092 10.19-44.548-11.05C5.21 119.91 5.1 111.98 0 110.176z"/>
        <path fill="#F5F5F5" fill-rule="nonzero" d="M0 110.176s16.257-2.566 17.738 11.873C19.22 136.49 49 138.49 49 138.49s-.194.131-.558.368c-24.588 15.99-48.092 10.19-44.548-11.05C5.21 119.91 5.1 111.98 0 110.176z" opacity=".2"/>
        <path stroke="#535461" stroke-width="2" d="M0 110s12.618 2.808 11.582 14.44C10.546 136.072 30.32 150.024 49 138.966"/>
        <path fill="#6C63FF" fill-rule="nonzero" d="M0 55h11v5H0zM7 61h11v5H7zM62 0h11v5H62zM139 95h11v5h-11zM8 67h11v5H8zM68 6h11v5H68zM32 41h11v5H32zM39 47h11v5H39zM59 43h11v5H59zM40 54h11v5H40zM154 95h11v5h-11z" opacity=".2"/>
        <path fill="url(#a)" fill-rule="nonzero" d="M136.7 75.974a79.747 79.747 0 0 1-1.174-10.873c-.258-6.155-4.324-11.48-10.154-13.302a39.503 39.503 0 0 0-3.44-.893c-11.055-2.37-14.414-.301-14.796-.029a14.372 14.372 0 0 1-.841-1.842c-.02-.065-.036-.13-.055-.192a14.348 14.348 0 0 0 3.782-8.606c1.844-1.887 2.921-4.165 2.921-6.617 0-2.109-.798-4.087-2.194-5.8v-3.332c0-3.842-1.512-7.527-4.204-10.244A14.288 14.288 0 0 0 96.395 10H95.23a14.288 14.288 0 0 0-10.15 4.244 14.557 14.557 0 0 0-4.204 10.244v3.591c-1.267 1.651-1.985 3.536-1.985 5.537 0 2.4 1.033 4.632 2.807 6.496a14.349 14.349 0 0 0 3.94 8.884c.078.545.157 1.13.235 1.747L66.1 54.959s-7.624.316-12.536 10.545c-4.155 8.664-12.421 30.923-14.87 37.549-.442 1.2-.693 1.888-.693 1.888s.082-.082.236-.224l-.236.646s.12-.123.348-.324c-.346 2.772-.395 7.533 3.202 8.125 3.017.497 10.79.702 16.66.784h.407c3.892.052 6.854.052 6.854.052v-.052h63.147v-.654c0-.592-.118-1.18-.348-1.725l.088-.107c.338.45.562.976.655 1.533a1.547 1.547 0 0 1-.03.161l.038-.097c.014.174.002.35-.038.52 0 0 8.101-21.07 8.014-33.65a21.508 21.508 0 0 0-.297-3.955zM86.202 53.59A14.75 14.75 0 0 1 86 51.773v-.018c.07.593.138 1.206.2 1.835zM61.656 98.844v5.022l-3.115.672 3.115-5.694z"/>
        <path fill="#E14B5A" fill-rule="nonzero" d="M97.5 12c8.008 0 14.5 6.277 14.5 14.02V32H83v-5.98C83 18.276 89.492 12 97.5 12z"/>
        <ellipse cx="98" cy="33.5" fill="#E14B5A" fill-rule="nonzero" rx="17" ry="11.5"/>
        <path fill="#F7C4A7" fill-rule="nonzero" d="M86.555 44.628s3.5 18.45 0 23.427C83.055 73.03 97.251 75 97.251 75l14.694-5.39L114 56.342s-8.945-5.08-7.092-15.342l-20.353 3.628zM127.934 104.719s.91 4.207-4.039 4.963a26.21 26.21 0 0 1-8.804-.113L114 99h11.512l2.422 5.719zM41.493 99.608s-2.24 8.797 2.83 9.592c5.067.794 23.677.8 23.677.8V99.593l-8.426 1.741L51.664 94l-10.171 5.608z"/>
        <path fill="#000" fill-rule="nonzero" d="M87.653 50.878l-19.4 4.11s-7.396.304-12.157 10.146C51.334 74.976 41 103.084 41 103.084s8.818-8.93 19.148.609l6.89-12.48L65.516 111h53.382v-9.337s11.142 5.987 10.334 9.335c0 0 9.536-24.61 7.475-35.794-.62-3.457-1-6.953-1.138-10.463a14.012 14.012 0 0 0-9.85-12.8 38.052 38.052 0 0 0-3.335-.859c-11.447-2.435-14.376 0-14.376 0s-2.218 7.227-2.178 10.502c.05 4.21-5.977 7.002-5.977 7.002s-8.915-2.13-9.32-3.855c-.404-1.724-3.594-11.823-2.88-13.853z" opacity=".1"/>
        <path fill="#575988" fill-rule="nonzero" d="M87.654 50.879l-19.4 4.108s-7.395.306-12.157 10.148C51.336 74.977 41 103.09 41 103.09s8.818-8.93 19.147.608l6.89-12.48L65.517 111h53.382v-9.335s11.143 5.986 10.334 9.335c0 0 9.536-24.61 7.475-35.795-.62-3.457-1-6.954-1.138-10.464a14.012 14.012 0 0 0-9.849-12.8 38.05 38.05 0 0 0-3.335-.859c-11.448-2.435-14.377 0-14.377 0s-2.217 7.227-2.177 10.503c.05 4.21-5.977 7.002-5.977 7.002s-8.915-2.131-9.32-3.856c-.404-1.724-3.594-11.823-2.88-13.852z"/>
        <path fill="#000" fill-rule="nonzero" d="M106 49.473a15.194 15.194 0 0 1-.514-7.473L86 45.683s.281 1.576.6 3.936c2.544 2.824 6.06 4.408 9.727 4.38 3.667-.027 7.162-1.663 9.67-4.526H106z" opacity=".1"/>
        <path fill="#F7C4A7" fill-rule="nonzero" d="M111 40.03c-.033 7.66-6.19 13.876-13.833 13.969-7.643.093-13.949-5.973-14.167-13.63v-.339a14.036 14.036 0 0 1 9.142-13.162 14.076 14.076 0 0 1 7.208-.672c6.385 1.09 11.19 6.427 11.613 12.903.025.308.037.619.037.931z"/>
        <g fill="#000" fill-rule="nonzero" opacity=".1">
            <path d="M92.127 26.838l.02-.011a14.11 14.11 0 0 0-1.291.537c-4.796 2.283-7.836 7.025-7.835 12.22v.329a3.182 3.182 0 0 0 1.255-.293c3.406-1.548 5.444-6.281 6.253-9.583.292-1.182.566-2.514 1.598-3.199z"/>
            <path d="M102.824 27.218a14.143 14.143 0 0 0-3.475-1.042c.984.22 1.863.758 2.495 1.525.309.41.566.854.764 1.324a14.367 14.367 0 0 0-11.754.237c.877 1.87 3.597 2.89 5.413 3.573 1.988.747 3.998 1.43 6.028 2.05l-1.797-1.42 4.058.629a6.665 6.665 0 0 0-.284-2.328c.778.61 1.809.814 2.652 1.325 1.581.97 2.24 2.838 3.102 4.455.227.428.496.865.906 1.135-.338-4.978-3.45-9.377-8.108-11.463z"/>
        </g>
        <path fill="#632652" fill-rule="nonzero" d="M92.979 27.011L93 27c-.484.158-.956.336-1.415.534C86.33 29.802 83 34.513 83 39.673V40c.476-.011.944-.11 1.374-.291 3.734-1.538 5.967-6.24 6.853-9.52.32-1.167.62-2.495 1.752-3.178z"/>
        <path fill="#632652" fill-rule="nonzero" d="M101.327 27.084A12.505 12.505 0 0 0 98.04 26c.932.23 1.763.788 2.36 1.585.294.426.536.888.724 1.377A12.49 12.49 0 0 0 90 29.208c.83 1.945 3.404 3.005 5.123 3.715a89.71 89.71 0 0 0 5.704 2.13l-1.7-1.475 3.84.653a7.573 7.573 0 0 0-.27-2.42c.737.634 1.712.846 2.51 1.377 1.497 1.01 2.12 2.95 2.936 4.632.215.444.469.899.857 1.18-.32-5.175-3.264-9.749-7.673-11.916z"/>
        <path fill="#000" fill-rule="nonzero" d="M83 37s14.373-17.485 31 0l-1.437-3.917S104.76 21.934 99.22 24.34c-5.542 2.406-10.984 4.119-10.984 4.119L83 37z" opacity=".1"/>
        <path fill="#E14B5A" fill-rule="nonzero" d="M83 36s14.373-17.485 31 0l-1.437-3.917S104.76 20.934 99.22 23.34c-5.542 2.406-10.984 4.119-10.984 4.119L83 36z"/>
        <path fill="#000" fill-rule="nonzero" d="M69.535 75s-3.042 8.189 1.217 15.559C75.012 97.929 67 101 67 101M118.288 67s4.775 6.883 1.653 13.036C116.818 86.19 117.002 101 117.002 101" opacity=".1"/>
        <path fill="#535461" fill-rule="nonzero" d="M65.841 106h58.316c2.675 0 4.843 2.239 4.843 5H61c0-2.76 2.167-4.999 4.841-5z"/>
        <path fill="#535461" fill-rule="nonzero" d="M71.525 73h46.95c1.996 0 3.91.82 5.32 2.282A7.932 7.932 0 0 1 126 80.79V109H64V80.79c0-4.302 3.37-7.79 7.525-7.79z"/>
        <circle cx="94" cy="92" r="4" fill="#FFF" fill-rule="nonzero"/>
        <path stroke="#000" d="M83 28s13.952-13.336 29-.244" opacity=".1"/>
        <path fill="#6A5C99" fill-rule="nonzero" d="M113 28h2v8h-2z"/>
        <path fill="#FFD037" fill-rule="nonzero" d="M111 33c2.761 0 5 2.386 5 5.328v.344c0 2.942-2.239 5.328-5 5.328V33z"/>
        <rect width="3" height="12" x="111" y="33" fill="#6A5C99" fill-rule="nonzero" rx="1.5"/>
        <path fill="#6A5C99" fill-rule="nonzero" d="M81 36h-2v-8h2z"/>
        <path fill="#FFD037" fill-rule="nonzero" d="M82 44c-2.761 0-5-2.386-5-5.328v-.344c0-1.413.527-2.768 1.464-3.767.938-1 2.21-1.561 3.536-1.561v11z"/>
        <rect width="3" height="12" x="82" y="33" fill="#6A5C99" fill-rule="nonzero" rx="1.5" transform="rotate(-180 83.5 39)"/>
        <path fill="#FFD037" fill-rule="nonzero" d="M114.042 20.223c-1.9-3.994-6.035-8.825-14.95-9.211V11h-.107l-3.158.152v.015c-8.855.412-12.972 5.225-14.865 9.206A20.916 20.916 0 0 0 79 29l1.09-.027 1.091-.025a18.965 18.965 0 0 1 1.772-7.68c2.404-4.997 6.828-7.653 13.146-7.9l2.794-.157c6.322.245 10.748 2.905 13.15 7.9a18.965 18.965 0 0 1 1.776 7.683l1.09.025 1.091.028a20.917 20.917 0 0 0-1.958-8.624z"/>
        <path fill="#D6D6E3" fill-rule="nonzero" d="M14 111h149v40H14z"/>
        <path fill="#000" fill-rule="nonzero" d="M14 113h149v5H14z" opacity=".1"/>
        <path fill="#D6D6E3" fill-rule="nonzero" d="M4 111h169v5H4z"/>
    </g>
</svg>
