<svg xmlns="http://www.w3.org/2000/svg" width="195" height="176" viewBox="0 0 195 176">
    <defs>
        <linearGradient id="a" x1="10.855%" x2="89.146%" y1="101.74%" y2="-1.736%">
            <stop offset="0%" stop-color="gray" stop-opacity=".25"/>
            <stop offset="54%" stop-color="gray" stop-opacity=".12"/>
            <stop offset="100%" stop-color="gray" stop-opacity=".1"/>
        </linearGradient>
        <linearGradient id="b" x1="49.884%" x2="49.884%" y1="100%" y2=".052%">
            <stop offset="0%" stop-color="gray" stop-opacity=".25"/>
            <stop offset="54%" stop-color="gray" stop-opacity=".12"/>
            <stop offset="100%" stop-color="gray" stop-opacity=".1"/>
        </linearGradient>
        <linearGradient id="c" x1="50.026%" x2="50.026%" y1="100%" y2=".001%">
            <stop offset="0%" stop-color="gray" stop-opacity=".25"/>
            <stop offset="54%" stop-color="gray" stop-opacity=".12"/>
            <stop offset="100%" stop-color="gray" stop-opacity=".1"/>
        </linearGradient>
    </defs>
    <g fill="none" fill-rule="evenodd">
        <path fill="#F0E4E4" fill-rule="nonzero" d="M45.008 133.159c2.605.172 5.358 1.08 7.728-.02.612-.282 1.166-.69 1.801-.918 1.458-.523 3.06-.015 4.529.474a199.917 199.917 0 0 0 35.31 8.279c2.471.346 5.051.638 7.406-.17 1.723-.59 3.215-1.727 4.92-2.365 2.79-1.04 5.87-.653 8.84-.49a56.367 56.367 0 0 0 22.854-3.498l.383-.146a11.507 11.507 0 0 1 11.023 1.488c1.24.914 2.555 1.72 3.932 2.41 4.628 2.345 6.559 7.965 4.357 12.68l-.051.111c-1.21 2.652-2.22 5.62-4.592 7.305-2.237 1.588-5.172 1.654-7.91 1.66l-16.809.041c-1.743 0-3.508 0-5.201-.413-1.522-.376-2.937-1.082-4.34-1.784l-7.521-3.749c-3.028-1.512-6.349-3.068-9.663-2.373-3.385.71-5.825 3.57-8.775 5.374-4.577 2.8-10.663 2.911-15.338.274-2.239-1.263-4.184-3.105-6.626-3.898-4.033-1.312-8.318.504-12.468 1.374-8.075 1.693-17.587-.623-23.775-6.223-7.97-7.213 1.388-15.99 9.986-15.423z"/>
        <path stroke="#535461" stroke-width="2" d="M14.467 145s-6.267-20.978 1.176-36.434c3.123-6.483 4.16-13.761 2.716-20.797A55.189 55.189 0 0 0 15.376 78"/>
        <path fill="#6C63FF" fill-rule="nonzero" d="M19 67.756C19 70.383 14.5 78 14.5 78S10 70.383 10 67.756 12.015 63 14.5 63s4.5 2.13 4.5 4.756zM28.26 82.146C26.878 84.293 19 88 19 88s.143-8.74 1.525-10.886a4.6 4.6 0 0 1 4.102-2.108 4.606 4.606 0 0 1 3.868 2.516 4.65 4.65 0 0 1-.235 4.624zM27.519 106.403c-2.187 1.101-10.519.342-10.519.342s4.347-7.153 6.534-8.254a4.44 4.44 0 0 1 4.451.227 4.43 4.43 0 0 1-.456 7.685h-.01zM23.107 124.902C20.985 126.346 12 127 12 127s3.31-7.724 5.43-9.168c2.12-1.41 5.078-.986 6.634.95 1.555 1.937 1.13 4.666-.955 6.12h-.002zM8.414 89.235C10.285 91.085 19 93 19 93s-2.134-8.81-4.005-10.66a4.664 4.664 0 0 0-6.66.117c-1.81 1.897-1.775 4.926.079 6.778zM4.344 109.398c2.215 1.11 10.656.344 10.656.344s-4.404-7.217-6.62-8.328a4.505 4.505 0 0 0-5.9 2.049 4.46 4.46 0 0 0 1.864 5.935zM1.893 131.902C4.015 133.346 13 134 13 134s-3.31-7.724-5.43-9.168c-2.12-1.41-5.078-.986-6.634.95-1.555 1.937-1.13 4.666.955 6.12h.002z"/>
        <path fill="#000" fill-rule="nonzero" d="M19 67.756C19 70.383 14.5 78 14.5 78S10 70.383 10 67.756 12.015 63 14.5 63s4.5 2.13 4.5 4.756zM28.26 82.146C26.878 84.293 19 88 19 88s.143-8.74 1.525-10.886a4.6 4.6 0 0 1 4.102-2.108 4.606 4.606 0 0 1 3.868 2.516 4.65 4.65 0 0 1-.235 4.624zM27.519 106.403c-2.187 1.101-10.519.342-10.519.342s4.347-7.153 6.534-8.254a4.44 4.44 0 0 1 4.451.227 4.43 4.43 0 0 1-.456 7.685h-.01zM23.107 124.902C20.985 126.346 12 127 12 127s3.31-7.724 5.43-9.168c2.12-1.41 5.078-.986 6.634.95 1.555 1.937 1.13 4.666-.955 6.12h-.002zM8.414 89.235C10.285 91.085 19 93 19 93s-2.134-8.81-4.005-10.66a4.664 4.664 0 0 0-6.66.117c-1.81 1.897-1.775 4.926.079 6.778zM4.344 109.398c2.215 1.11 10.656.344 10.656.344s-4.404-7.217-6.62-8.328a4.505 4.505 0 0 0-5.9 2.049 4.46 4.46 0 0 0 1.864 5.935zM1.893 131.902C4.015 133.346 13 134 13 134s-3.31-7.724-5.43-9.168c-2.12-1.41-5.078-.986-6.634.95-1.555 1.937-1.13 4.666.955 6.12h.002z" opacity=".25"/>
        <path fill="#6C63FF" fill-rule="nonzero" d="M127.73 88.187c-.787-6.195 1.676-12.572.212-18.637-1.126-4.684-4.462-8.596-5.558-13.29-1.61-6.955 2.074-14.099 6.775-19.44 3.234-3.68 7.292-7.021 12.13-7.69 2.986-.427 6.056.233 8.814 1.457a22.443 22.443 0 0 1 12.025 13.281c.637 1.902 1.005 3.89 1.788 5.734 1.35 3.177 3.825 5.74 5.365 8.83a16.837 16.837 0 0 1 .565 13.537c-1.782 4.473-5.524 8.216-6.076 13.003-.402 3.45.886 7.23-.786 10.269-1.262 2.294-3.86 3.452-6.32 4.32-5.724 2.008-13.725 5.255-19.461 2.164-5.019-2.703-8.747-7.82-9.474-13.538z"/>
        <path stroke="#333" stroke-width="3" d="M144 92s8.4-3.494 9.459-5.46C154.517 84.575 156 73 156 73M144 144V71"/>
        <path fill="url(#a)" fill-rule="nonzero" d="M73.682 0L2.957.172a2.908 2.908 0 0 0-2.053.854 2.897 2.897 0 0 0-.847 2.052L.38 135.102c.001.77.31 1.507.856 2.05a2.908 2.908 0 0 0 2.058.844l70.725-.172a2.908 2.908 0 0 0 2.053-.854 2.897 2.897 0 0 0 .846-2.053L76.598 2.894a2.897 2.897 0 0 0-.857-2.05A2.908 2.908 0 0 0 73.68 0z" opacity=".5" transform="translate(60 13)"/>
        <rect width="74" height="134" x="61" y="15" fill="#535461" fill-rule="nonzero" rx="13.64" transform="rotate(-.14 98 82)"/>
        <path fill="#FFF" fill-rule="nonzero" d="M134 144.003a2.83 2.83 0 0 1-2.819 2.84L66.127 147a2.83 2.83 0 0 1-2.834-2.824l-.044-19.115L63 21.997a2.83 2.83 0 0 1 2.819-2.84l13.606-.031a6.039 6.039 0 0 0 5.953 5.126l25.706-.062a6.041 6.041 0 0 0 5.951-5.156L130.854 19a2.83 2.83 0 0 1 2.833 2.824l.266 103.237.047 18.942z"/>
        <path fill="#E6E6E6" fill-rule="nonzero" d="M134 142.132c.004 1.496-1.263 2.713-2.829 2.717L65.89 145c-1.567.003-2.84-1.207-2.844-2.703L63 124h70.953l.047 18.132z"/>
        <rect width="17" height="1" x="89" y="20" fill="#FFF" fill-rule="nonzero" rx=".5" transform="rotate(-.86 97.5 20.5)"/>
        <circle cx="109" cy="21" r="1" fill="#FFF" fill-rule="nonzero" transform="rotate(-.86 109 21)"/>
        <path fill="#6C63FF" fill-rule="nonzero" d="M151.73 88.187c-.787-6.195 1.676-12.572.212-18.637-1.126-4.685-4.462-8.596-5.558-13.29-1.61-6.955 2.074-14.099 6.775-19.44 3.234-3.68 7.292-7.021 12.13-7.69 2.987-.427 6.057.233 8.815 1.457a22.444 22.444 0 0 1 12.025 13.281c.637 1.901 1.005 3.89 1.789 5.734 1.35 3.177 3.824 5.74 5.365 8.829a16.836 16.836 0 0 1 .558 13.546c-1.782 4.473-5.524 8.216-6.076 13.003-.402 3.45.886 7.23-.786 10.27-1.262 2.294-3.86 3.452-6.32 4.319-5.718 2-13.72 5.246-19.456 2.155-5.018-2.702-8.747-7.818-9.473-13.537z"/>
        <path fill="#000" fill-rule="nonzero" d="M151.73 88.187c-.787-6.195 1.676-12.572.212-18.637-1.126-4.685-4.462-8.596-5.558-13.29-1.61-6.955 2.074-14.099 6.775-19.44 3.234-3.68 7.292-7.021 12.13-7.69 2.987-.427 6.057.233 8.815 1.457a22.444 22.444 0 0 1 12.025 13.281c.637 1.901 1.005 3.89 1.789 5.734 1.35 3.177 3.824 5.74 5.365 8.829a16.836 16.836 0 0 1 .558 13.546c-1.782 4.473-5.524 8.216-6.076 13.003-.402 3.45.886 7.23-.786 10.27-1.262 2.294-3.86 3.452-6.32 4.319-5.718 2-13.72 5.246-19.456 2.155-5.018-2.702-8.747-7.818-9.473-13.537z" opacity=".2"/>
        <path stroke="#333" stroke-width="3" d="M167 92s8.4-3.494 9.459-5.46C177.517 84.575 179 73 179 73M167 144V71"/>
        <path stroke="#535461" stroke-width="2" d="M30.06 153s-2.691-9.084.503-15.775a14.273 14.273 0 0 0 1.168-9A24.026 24.026 0 0 0 30.449 124"/>
        <path fill="#6C63FF" fill-rule="nonzero" d="M31.998 120.22c0 1.225-1.999 4.78-1.999 4.78S28 121.445 28 120.22c0-1.226.895-2.22 2-2.22s2 .994 2 2.22h-.002zM36.63 126.298C35.938 127.288 32 129 32 129s.072-4.033.762-5.025c.447-.64 1.23-1.011 2.052-.972.822.039 1.559.482 1.934 1.161.374.68.33 1.493-.118 2.134zM35.872 137.668c-1.013.612-4.872.19-4.872.19s2.01-3.981 3.024-4.594c.654-.397 1.435-.344 2.049.14.613.482.965 1.322.924 2.201-.042.88-.47 1.666-1.125 2.063zM34.108 145.956C33.13 146.676 29 147 29 147s1.521-3.846 2.498-4.57a2.2 2.2 0 0 1 3.071.458 2.186 2.186 0 0 1-.46 3.063l-.001.005z"/>
        <path fill="#6C63FF" fill-rule="nonzero" d="M27.715 130.12C28.65 131.044 33 132 33 132s-1.065-4.398-2-5.322a2.33 2.33 0 0 0-2.286-.587 2.38 2.38 0 0 0-1.642 1.721c-.206.831.039 1.711.643 2.308zM25.128 138.668c1.013.612 4.872.19 4.872.19s-2.01-3.98-3.024-4.593c-1.011-.614-2.245-.125-2.756 1.09-.51 1.217-.104 2.7.908 3.313zM24.892 147.956C25.87 148.676 30 149 30 149s-1.521-3.846-2.498-4.57a2.2 2.2 0 0 0-3.071.458 2.186 2.186 0 0 0 .46 3.063l.001.005z"/>
        <path fill="#000" fill-rule="nonzero" d="M31.998 120.22c0 1.225-1.999 4.78-1.999 4.78S28 121.445 28 120.22c0-1.226.895-2.22 2-2.22s2 .994 2 2.22h-.002zM36.63 126.298C35.938 127.288 32 129 32 129s.072-4.033.762-5.025c.447-.64 1.23-1.011 2.052-.972.822.039 1.559.482 1.934 1.161.374.68.33 1.493-.118 2.134zM35.872 137.668c-1.013.612-4.872.19-4.872.19s2.01-3.981 3.024-4.594c.654-.397 1.435-.344 2.049.14.613.482.965 1.322.924 2.201-.042.88-.47 1.666-1.125 2.063zM34.108 145.956C33.13 146.676 29 147 29 147s1.521-3.846 2.498-4.57a2.2 2.2 0 0 1 3.071.458 2.186 2.186 0 0 1-.46 3.063l-.001.005z" opacity=".25"/>
        <path fill="#000" fill-rule="nonzero" d="M27.715 130.12C28.65 131.044 33 132 33 132s-1.065-4.398-2-5.322a2.33 2.33 0 0 0-2.286-.587 2.38 2.38 0 0 0-1.642 1.721c-.206.831.039 1.711.643 2.308zM25.128 138.668c1.013.612 4.872.19 4.872.19s-2.01-3.98-3.024-4.593c-1.011-.614-2.245-.125-2.756 1.09-.51 1.217-.104 2.7.908 3.313zM24.892 147.956C25.87 148.676 30 149 30 149s-1.521-3.846-2.498-4.57a2.2 2.2 0 0 0-3.071.458 2.186 2.186 0 0 0 .46 3.063l.001.005z" opacity=".25"/>
        <path stroke="#535461" stroke-width="2" d="M179.408 148s-3.582-11.279.681-19.581c1.807-3.47 2.351-7.392 1.552-11.174a28.37 28.37 0 0 0-1.706-5.245"/>
        <path fill="#6C63FF" fill-rule="nonzero" d="M183.997 106.537C183.997 107.94 181 112 181 112S178 107.94 178 106.537c0-1.401 1.343-2.537 3-2.537s3 1.136 3 2.537h-.003zM187.555 114.85C186.727 116.006 182 118 182 118s.086-4.705.915-5.862c.83-1.156 2.542-1.486 3.823-.737 1.282.748 1.647 2.292.817 3.447v.003zM186.683 128.597c-1.18.747-5.683.227-5.683.227s2.346-4.77 3.527-5.507c1.181-.735 2.62-.149 3.216 1.308.595 1.458.12 3.235-1.06 3.97v.002zM183.961 137.746C182.824 138.61 178 139 178 139s1.776-4.62 2.914-5.484a2.52 2.52 0 0 1 3.584.55c.841 1.169.601 2.816-.537 3.68zM175.661 118.103C176.604 119.035 181 120 181 120s-1.077-4.441-2.02-5.371a2.352 2.352 0 0 0-3.305.103 2.452 2.452 0 0 0-.014 3.365v.006zM174.316 130.597c1.18.747 5.684.227 5.684.227s-2.346-4.77-3.528-5.507c-.763-.476-1.675-.412-2.39.167-.716.578-1.127 1.584-1.078 2.639.048 1.054.549 1.996 1.312 2.472v.002zM173.039 141.746C174.176 142.61 179 143 179 143s-1.776-4.62-2.914-5.484a2.52 2.52 0 0 0-3.584.55c-.841 1.169-.601 2.816.537 3.68z"/>
        <path fill="#FFF" fill-rule="nonzero" d="M183.997 106.537C183.997 107.94 181 112 181 112S178 107.94 178 106.537c0-1.401 1.343-2.537 3-2.537s3 1.136 3 2.537h-.003zM187.555 114.85C186.727 116.006 182 118 182 118s.086-4.705.915-5.862c.83-1.156 2.542-1.486 3.823-.737 1.282.748 1.647 2.292.817 3.447v.003zM186.683 128.597c-1.18.747-5.683.227-5.683.227s2.346-4.77 3.527-5.507c1.181-.735 2.62-.149 3.216 1.308.595 1.458.12 3.235-1.06 3.97v.002zM183.961 137.746C182.824 138.61 178 139 178 139s1.776-4.62 2.914-5.484a2.52 2.52 0 0 1 3.584.55c.841 1.169.601 2.816-.537 3.68zM175.661 118.103C176.604 119.035 181 120 181 120s-1.077-4.441-2.02-5.371a2.352 2.352 0 0 0-3.305.103 2.452 2.452 0 0 0-.014 3.365v.006zM174.316 130.597c1.18.747 5.684.227 5.684.227s-2.346-4.77-3.528-5.507c-.763-.476-1.675-.412-2.39.167-.716.578-1.127 1.584-1.078 2.639.048 1.054.549 1.996 1.312 2.472v.002zM173.039 141.746C174.176 142.61 179 143 179 143s-1.776-4.62-2.914-5.484a2.52 2.52 0 0 0-3.584.55c-.841 1.169-.601 2.816.537 3.68z" opacity=".5"/>
        <g fill="#6C63FF" fill-rule="nonzero" opacity=".6" transform="translate(66 34)">
            <rect width="13.563" height="12.8" x=".019" y=".172" rx="6.4"/>
            <rect width="13.563" height="12.8" x="16.761" y=".172" rx="6.4"/>
            <rect width="13.563" height="12.8" x="33.503" y=".172" rx="6.4"/>
            <rect width="13.563" height="12.8" x="50.244" y=".172" rx="6.4"/>
        </g>
        <rect width="13" height="13" x="66" y="55" fill="#6C63FF" fill-rule="nonzero" rx="6.5"/>
        <rect width="13" height="13" x="83" y="55" fill="#6C63FF" fill-rule="nonzero" opacity=".6" rx="6.5"/>
        <rect width="13" height="13" x="100" y="55" fill="#6C63FF" fill-rule="nonzero" opacity=".6" rx="6.5"/>
        <rect width="13" height="13" x="117" y="55" fill="#6C63FF" fill-rule="nonzero" opacity=".6" rx="6.5"/>
        <g fill="#6C63FF" fill-rule="nonzero" opacity=".6" transform="translate(65 74)">
            <rect width="13.563" height="12.8" x=".091" y=".172" rx="6.4"/>
            <rect width="13.563" height="12.8" x="16.833" y=".172" rx="6.4"/>
            <rect width="13.563" height="12.8" x="33.575" y=".172" rx="6.4"/>
            <rect width="13.563" height="12.8" x="50.316" y=".172" rx="6.4"/>
        </g>
        <g fill="#6C63FF" fill-rule="nonzero" opacity=".6" transform="translate(65 96)">
            <rect width="13.563" height="12.8" x=".023" y=".172" rx="6.4"/>
            <rect width="13.563" height="12.8" x="16.765" y=".172" rx="6.4"/>
            <rect width="13.563" height="12.8" x="33.507" y=".172" rx="6.4"/>
            <rect width="13.563" height="12.8" x="50.248" y=".172" rx="6.4"/>
        </g>
        <path fill="url(#b)" fill-rule="nonzero" d="M73.028 70.723V72L68 68.599l.53-.709.245.155 3.892-6.107v-3.551l1.482.141v-.567c3.918-4.82 4.312.567 3.506 2.126-.806 1.56-2.291 2.693-2.291 2.693-.825.742-2.268 6.351-2.617 7.758l.28.185z"/>
        <path fill="url(#c)" fill-rule="nonzero" d="M34.218 81.007s3.907 7.718 2.693 15.436c-.407 2.594-.237 4.18.17 5.146a9.534 9.534 0 0 1-.84 3.014c-1.482 3.129-1.482 6.393.404 10.202l.54 19.713s.673 9.249 0 11.154c-.675 1.906.268 11.022.268 11.022h-.134v5.033l10.094.273s2.366-1.134 2.786-1.982l5.073 1.575s5.582-.97 2.31-2.315c-2.438-1-3.043-2.43-3.194-3.092l7.978-23.16s-1.482-19.713-6.872-26.523l-.546-4.01h.076l1.144-23.417.095.013h-.028c2.95.476 5.96.429 8.894-.138.88-.158 1.743-.401 2.576-.727l.153-.062h.032a7.779 7.779 0 0 0 1.75-1.009L73 71.958l-5.119-3.561-1.75 2.522s-5.487-1.17-8.5-2.403a12.768 12.768 0 0 0-4.409-.956l-3.29-.115-1.64-.994.513-1.337c.05-.024.1-.047.151-.075l.046-.286c4.211-1.055 6.778-5.357 5.734-9.608h.107c-.046-2.756-.881-3.025-.881-3.025 0-2.802-2.425-4.852-5.188-5.087-1.431-.1-2.869.028-4.26.377a4.99 4.99 0 0 0-3.78 4.35c-3.609 1.002-2.4 2.91-2.456 3.641-.277 3.561.84 5.666 2.079 6.893a6.512 6.512 0 0 0 1.82 1.349l-.787 1.591h-.231l-.643 1.908h-.031l-.702.458c-4.326 2.958-6.51 8.219-5.565 13.407zm10.776 75.687v-6.12l2.56-18.088v-9.25l4.583 9.65-4.934 20.934-.258-.072-1.136 4.12a2.707 2.707 0 0 1-.812-1.174h-.003z"/>
        <path fill="#FDA57D" fill-rule="nonzero" d="M71.826 60.085v3.1L68 68.596 71.826 71s1.7-6.324 2.617-7.068c0 0 1.44-.992 2.223-2.356.784-1.364.392-6.077-3.403-1.86v.496l-1.437-.127zM41.055 68.399l1.445-3.667c.086-.22.258-.363.45-.376l5.487-.355c.181-.012.355.093.461.28a.833.833 0 0 1 .066.643l-1.415 4.642c-.086.282-.309.458-.547.431l-5.514-.623c-.176-.019-.333-.147-.42-.342a.842.842 0 0 1-.013-.633z"/>
        <path fill="#EDEEF9" fill-rule="nonzero" d="M40.974 67L40 70l10-.377-3.841-2.422zM67 69.689l.63-.689L73 71.758V73z"/>
        <path fill="#7A7478" fill-rule="nonzero" d="M36.696 99c.404 2.04.166 4.158-.678 6.05-1.416 3.04-1.416 6.218.386 9.914l.515 19.167s.643 8.99 0 10.84c-.643 1.85.253 10.708.253 10.708h7.209v-5.95l2.444-17.58v-8.991l4.384 9.386-5.01 21.68L52.762 157 61 132.677s-1.428-19.167-6.576-25.774l-.969-7.206L36.696 99z"/>
        <path fill="#333" fill-rule="nonzero" d="M38 160.69V155h7.71s.542 2.308 4.06 2.77c3.517.46-1.624 3.23-1.624 3.23L38 160.69z"/>
        <path fill="#333" fill-rule="nonzero" d="M46 156.33l1.337-4.33 7.396 1.856s-.024 1.883 3.242 3.08c3.266 1.196-2.316 2.064-2.316 2.064L46 156.33z"/>
        <path fill="#000" fill-rule="nonzero" d="M53.563 99.769L37 99a12.16 12.16 0 0 1 .126 3.445c.757 2.044 2.382 1.485 2.382 1.485L54 103.42l-.437-3.651z" opacity=".1"/>
        <path fill="#4D8AF0" fill-rule="nonzero" d="M41.312 69l-.68.453c-4.212 2.799-6.339 7.776-5.421 12.685 0 0 3.805 7.309 2.624 14.618s2.624 6.181 2.624 6.181l15.024-.453 1.115-22.167s9.054 1.263 13.123-1.828L73 73.571l-4.986-3.376-1.703 2.389s-5.343-1.107-8.278-2.277a12.741 12.741 0 0 0-4.303-.904L41.312 69z"/>
        <path fill="#000" fill-rule="nonzero" d="M41.07 104s-1.046 4.516 4.93 12M56 79.743S62.088 78 64.752 78c2.665 0 2.22.988 2.22.988S62.73 80.615 56 79.743zM49.74 64l-2.544.28c-.08 0-.153.1-.196.245.56.925 1.258 1.475 2.018 1.475.271-.004.537-.072.77-.198l.195-1.079c.065-.358-.065-.742-.244-.722z" opacity=".1"/>
        <circle cx="46.5" cy="58.5" r="7.5" fill="#FDA57D" fill-rule="nonzero"/>
        <path fill="#000" fill-rule="nonzero" d="M54 54.418l-.388.366a1.41 1.41 0 0 0-.406 1.249c.077.461.374.85.788 1.03 0 0-3.398 3.553-3.87 4.213-.472.66.078 2.395.078 2.395s1.501 2.892-6.398 2.23c0 0-5.213-1.155-4.66-8.51.054-.737-1.106-2.647 2.37-3.635.213-2.116 1.682-3.86 3.663-4.346a12.696 12.696 0 0 1 4.112-.377c2.668.245 4.714 2.583 4.711 5.385z" opacity=".1"/>
        <path fill="#72351C" fill-rule="nonzero" d="M55.112 54.12s.848.26.888 3.023l-1.206-.082s-2.79 7.411-2.497 6.445c1.082-3.553-1.081-2.891-1.581-2.23-.5.662.082 2.396.082 2.396s1.582 2.891-6.739 2.23c0 0-5.49-1.156-4.908-8.51.057-.736-1.164-2.647 2.496-3.635A5.014 5.014 0 0 1 45.5 49.41a14.059 14.059 0 0 1 4.33-.377c2.817.236 5.283 2.29 5.283 5.086z"/>
        <g fill="#6C63FF" fill-rule="nonzero" opacity=".6" transform="translate(66 128)">
            <rect width="13.563" height="12.8" x=".023" y=".07" rx="6.4"/>
            <rect width="13.563" height="12.8" x="16.765" y=".07" rx="6.4"/>
            <rect width="13.563" height="12.8" x="33.507" y=".07" rx="6.4"/>
            <rect width="13.563" height="12.8" x="50.248" y=".07" rx="6.4"/>
        </g>
        <g fill="#000" fill-rule="nonzero" opacity=".1" transform="translate(66 128)">
            <rect width="13.563" height="12.8" x=".023" y=".07" rx="6.4"/>
            <rect width="13.563" height="12.8" x="16.765" y=".07" rx="6.4"/>
            <rect width="13.563" height="12.8" x="33.507" y=".07" rx="6.4"/>
            <rect width="13.563" height="12.8" x="50.248" y=".07" rx="6.4"/>
        </g>
    </g>
</svg>
