<svg xmlns="http://www.w3.org/2000/svg" xmlns:xlink="http://www.w3.org/1999/xlink" width="95" height="115" viewBox="0 0 95 115">
    <defs>
        <path id="a" d="M0 .125h24.765V115H0z"/>
        <path id="c" d="M.077 115V.125h15.718c11.416 0 22.047 3.4 30.93 9.232v42.405c-.942-6.605-4.01-12.726-8.877-17.566-5.925-5.893-13.757-9.139-22.053-9.139H.313v65.01h15.482c8.296 0 16.128-3.245 22.053-9.138 4.866-4.84 7.935-10.961 8.877-17.566v42.406A56.19 56.19 0 0 1 15.795 115"/>
        <linearGradient id="d" x1="100%" x2="0%" y1="50%" y2="50%">
            <stop offset="0%" stop-color="#FFF"/>
            <stop offset="100%" stop-color="#D1CDE5"/>
        </linearGradient>
    </defs>
    <g fill="none" fill-rule="evenodd">
        <path fill="#FFF" d="M73.137 27.913l1.898-15.111A55.899 55.899 0 0 0 70 9v42.664c.202 1.444.306 2.912.306 4.394v2.882c0 1.483-.104 2.95-.306 4.395V106c15.049-10.088 25-27.415 25-47.06v-2.882c0-10.236-2.702-19.843-7.418-28.125l-14.445-.02z"/>
        <g>
            <mask id="b" fill="#fff">
                <use xlink:href="#a"/>
            </mask>
            <path fill="#FFF" d="M12.5.125C5.596.125 0 5.706 0 12.591v89.943C0 109.419 5.596 115 12.5 115h12.265V.125H12.5z" mask="url(#b)"/>
        </g>
        <path fill="#FFF" d="M82.104 6.824l-2.36 14.908 13.99.508a55.79 55.79 0 0 0-11.63-15.416M61.246 80.892c-5.843 5.9-13.566 9.149-21.747 9.149H24.233V24.959h15.266c8.181 0 15.905 3.25 21.747 9.149 4.8 4.846 7.825 10.973 8.754 17.585V9.243C61.24 3.403 50.757 0 39.5 0H24v115h15.5c11.257 0 21.74-3.404 30.5-9.24V63.307c-.929 6.612-3.955 12.74-8.754 17.585"/>
        <g transform="translate(24)">
            <mask id="e" fill="#fff">
                <use xlink:href="#c"/>
            </mask>
            <path fill="url(#d)" d="M37.848 80.93c-5.925 5.892-13.757 9.138-22.053 9.138H.313v-65.01h15.482c8.296 0 16.128 3.245 22.053 9.138 4.866 4.84 7.935 10.961 8.877 17.566V9.357A56.183 56.183 0 0 0 15.795.125H.077V115h15.718a56.19 56.19 0 0 0 30.93-9.23V63.362c-.942 6.605-4.01 12.726-8.877 17.566" mask="url(#e)"/>
        </g>
    </g>
</svg>
