<svg xmlns="http://www.w3.org/2000/svg" width="152" height="176" viewBox="0 0 152 176">
    <defs>
        <linearGradient id="a" x1="49.997%" x2="49.997%" y1="100%" y2="0%">
            <stop offset="0%" stop-color="gray" stop-opacity=".25"/>
            <stop offset="54%" stop-color="gray" stop-opacity=".12"/>
            <stop offset="100%" stop-color="gray" stop-opacity=".1"/>
        </linearGradient>
        <linearGradient id="b" x1="40522%" x2="40522%" y1="31318%" y2="7500%">
            <stop offset="0%" stop-color="gray" stop-opacity=".25"/>
            <stop offset="54%" stop-color="gray" stop-opacity=".12"/>
            <stop offset="100%" stop-color="gray" stop-opacity=".1"/>
        </linearGradient>
        <linearGradient id="c" x1="49497%" x2="49497%" y1="48421%" y2="26503%">
            <stop offset="0%" stop-color="gray" stop-opacity=".25"/>
            <stop offset="54%" stop-color="gray" stop-opacity=".12"/>
            <stop offset="100%" stop-color="gray" stop-opacity=".1"/>
        </linearGradient>
        <linearGradient id="d" x1="65920%" x2="65920%" y1="82500%" y2="51081%">
            <stop offset="0%" stop-color="gray" stop-opacity=".25"/>
            <stop offset="54%" stop-color="gray" stop-opacity=".12"/>
            <stop offset="100%" stop-color="gray" stop-opacity=".1"/>
        </linearGradient>
        <linearGradient id="e" x1="49561%" x2="49561%" y1="59949%" y2="44493%">
            <stop offset="0%" stop-color="gray" stop-opacity=".25"/>
            <stop offset="54%" stop-color="gray" stop-opacity=".12"/>
            <stop offset="100%" stop-color="gray" stop-opacity=".1"/>
        </linearGradient>
        <linearGradient id="f" x1="43450%" x2="43450%" y1="46530%" y2="26166%">
            <stop offset="0%" stop-color="gray" stop-opacity=".25"/>
            <stop offset="54%" stop-color="gray" stop-opacity=".12"/>
            <stop offset="100%" stop-color="gray" stop-opacity=".1"/>
        </linearGradient>
        <linearGradient id="g" x1="42782%" x2="42782%" y1="34966%" y2="8538%">
            <stop offset="0%" stop-color="gray" stop-opacity=".25"/>
            <stop offset="54%" stop-color="gray" stop-opacity=".12"/>
            <stop offset="100%" stop-color="gray" stop-opacity=".1"/>
        </linearGradient>
        <linearGradient id="h" x1="47961%" x2="47961%" y1="34966%" y2="20040%">
            <stop offset="0%" stop-color="gray" stop-opacity=".25"/>
            <stop offset="54%" stop-color="gray" stop-opacity=".12"/>
            <stop offset="100%" stop-color="gray" stop-opacity=".1"/>
        </linearGradient>
        <linearGradient id="i" x1="76423%" x2="76423%" y1="82500%" y2="41918%">
            <stop offset="0%" stop-color="gray" stop-opacity=".25"/>
            <stop offset="54%" stop-color="gray" stop-opacity=".12"/>
            <stop offset="100%" stop-color="gray" stop-opacity=".1"/>
        </linearGradient>
        <linearGradient id="j" x1="41329%" x2="41329%" y1="23336%" y2="13239%">
            <stop offset="0%" stop-color="gray" stop-opacity=".25"/>
            <stop offset="54%" stop-color="gray" stop-opacity=".12"/>
            <stop offset="100%" stop-color="gray" stop-opacity=".1"/>
        </linearGradient>
        <linearGradient id="k" x1="45674%" x2="45674%" y1="13685%" y2="10075%">
            <stop offset="0%" stop-color="gray" stop-opacity=".25"/>
            <stop offset="54%" stop-color="gray" stop-opacity=".12"/>
            <stop offset="100%" stop-color="gray" stop-opacity=".1"/>
        </linearGradient>
        <linearGradient id="l" x1="46390%" x2="46390%" y1="12884%" y2="9274%">
            <stop offset="0%" stop-color="gray" stop-opacity=".25"/>
            <stop offset="54%" stop-color="gray" stop-opacity=".12"/>
            <stop offset="100%" stop-color="gray" stop-opacity=".1"/>
        </linearGradient>
        <linearGradient id="m" x1="49687%" x2="49687%" y1="14784%" y2="12633%">
            <stop offset="0%" stop-color="gray" stop-opacity=".25"/>
            <stop offset="54%" stop-color="gray" stop-opacity=".12"/>
            <stop offset="100%" stop-color="gray" stop-opacity=".1"/>
        </linearGradient>
        <linearGradient id="n" x1="49687%" x2="49687%" y1="15425%" y2="13274%">
            <stop offset="0%" stop-color="gray" stop-opacity=".25"/>
            <stop offset="54%" stop-color="gray" stop-opacity=".12"/>
            <stop offset="100%" stop-color="gray" stop-opacity=".1"/>
        </linearGradient>
        <linearGradient id="o" x1="47309%" x2="47309%" y1="14448%" y2="12089%">
            <stop offset="0%" stop-color="gray" stop-opacity=".25"/>
            <stop offset="54%" stop-color="gray" stop-opacity=".12"/>
            <stop offset="100%" stop-color="gray" stop-opacity=".1"/>
        </linearGradient>
    </defs>
    <g fill="none" fill-rule="nonzero">
        <path fill="url(#a)" d="M59.278 110H28.722c-3.148 0-5.722 2.43-5.722 5.4v6.094c.012.277.24.494.513.485h10.248a1.288 1.288 0 0 0-1.311 1.245v.587c.03.71.613 1.265 1.31 1.246h5.037v31.835H31.31c-.968 0-1.76.747-1.76 1.662v.785c0 .914.792 1.661 1.76 1.661h26.726c.968 0 1.76-.747 1.76-1.661v-.785c0-.915-.792-1.662-1.76-1.662h-8.845v-18.824h6.358c.819.027 1.506-.622 1.54-1.455v-.685c-.034-.833-.721-1.482-1.54-1.454h-6.358v-9.415h5.423a1.288 1.288 0 0 0 1.311-1.245v-.587a1.288 1.288 0 0 0-1.31-1.246h9.87a.502.502 0 0 0 .514-.485v-6.09c0-2.975-2.576-5.406-5.722-5.406z" transform="translate(0 5)"/>
        <g transform="translate(24 114)">
            <rect width="11.784" height="3.574" x="20.654" y="24.493" fill="#C5CAE9" rx="1.787"/>
            <rect width="9.864" height="44.765" x="15.08" y="6.111" fill="#C5CAE9" rx="4.932"/>
            <path fill="#1A237E" d="M4.372.155h31.291c1.13 0 2.215.456 3.014 1.267.8.81 1.249 1.91 1.249 3.057v7.202a.385.385 0 0 1-.383.388H.483a.385.385 0 0 1-.382-.388V4.48c0-1.148.45-2.25 1.251-3.06A4.232 4.232 0 0 1 4.372.155z"/>
            <rect width="22.286" height="3.064" x="9.054" y="12.069" fill="#536DFE" rx="1.532"/>
            <rect width="28.68" height="4.084" x="6.313" y="46.791" fill="#1A237E" rx="2.042"/>
        </g>
        <path fill="url(#b)" d="M63.352 20.893c-1.9 1.006-4.489.764-6.13-.574-1.641-1.337-2.205-3.665-1.338-5.515a86.937 86.937 0 0 1-20.947-8.457c-2.132-1.208-4.651-2.557-6.984-1.72-1.393.5-2.899 1.738-4.13.961-.775-.487-.853-1.504-1.389-2.212-1.005-1.335-3.14-1.168-4.905-1.113-1.766.056-4.047-.647-4.014-2.263a3.156 3.156 0 0 0 .845 3.692 3.915 3.915 0 0 0 4.079.494l1.257 3.287c-5.017.728-9.287 4.643-10.08 9.245-.795 4.603 1.95 9.534 6.477 11.646-2.301-.596-4.607.77-6.536 2.068L0 36.848c3.644.89 7.804-.445 10.057-3.227.526-.652 1.07-1.444 1.948-1.542 1.033-.116 1.833.794 2.812 1.113 1.41.458 2.881-.357 4.26-.89a11.76 11.76 0 0 1 9.695.667c2.876 1.6 4.838 4.504 5.128 7.578.107 1.162 0 2.372.486 3.447.406.89 1.182 1.587 1.7 2.424.825 1.335.952 2.935 1.627 4.335.676 1.4 2.346 2.67 3.905 2.112-.75.105-1.204-.812-1.03-1.489.173-.676.69-1.25.827-1.934.223-1.077-.544-2.087-1.14-3.035a16.33 16.33 0 0 1-1.982-4.956c3.055 1.71 6.67 2.67 10.257 2.893.825.053 1.675.069 2.453-.194.778-.263 1.467-.855 1.581-1.607.067-.445-.073-.921.06-1.36.208-.678.988-1.054 1.439-1.626.38-.486.236-1.37-.273-1.527.67-.102 1.013-1.035.877-1.725-.156-.792-.549-1.68-.045-2.339.395-.518 1.236-.692 1.492-1.28.361-.83-.687-1.535-1.4-2.143-1.876-1.6-1.88-4.295-1.532-6.623.089-.608.192-1.226.274-1.847a6.795 6.795 0 0 0 5.809-.154l.25 1.943c.973.214 1.763.92 2.082 1.863H67c-2.402-.265-4.223-2.684-3.648-4.832z" transform="translate(0 5)"/>
        <path fill="#FBD3AF" d="M36.407 21.788c2.134-1.665 4.507-3.223 7.246-3.677 2.74-.453 5.917.478 7.216 2.768 1.125 1.983.63 4.38.304 6.601s-.322 4.793 1.44 6.32c.66.58 1.653 1.254 1.32 2.044-.24.56-1.03.726-1.402 1.222-.473.629-.103 1.475.042 2.232.145.757-.308 1.812-1.1 1.636.701-.156.966.922.543 1.467-.423.544-1.156.893-1.352 1.562-.126.418 0 .866-.057 1.297-.106.717-.758 1.284-1.487 1.531-.728.248-1.528.224-2.303.184-5.41-.35-10.877-2.48-14.14-6.512-5.166-6.375-2.274-13.987 3.73-18.675z"/>
        <path fill="url(#c)" d="M78.998 45.657c-.038-.758-.552-1.16-1.065-1.027-.512.133-1.002.681-1.398 1.314-.174.276-.335.567-.497.863-1.272-.094-2.68.635-3.833 2.004-1.237 1.47-2.156 3.65-2.463 5.843-.04.291-.084.578-.146.86C63.4 62.48 54.714 70.04 47.716 76.54l.013-.539c-2.12-9.651-7.999-18.451-9.717-28.163-.349-1.97-.607-4.117-2.169-5.552-1.85-1.7-5.265-1.697-7.223-.098-2.392 1.951-1.61 4.253-.946 6.638 1.53 5.49 2.818 10.804 5.007 16.16 2.142 5.242 4.445 10.457 5.916 15.889.563 2.076 1.04 4.257 2.496 5.961 1.208 1.415 3.343 2.368 5.231 2.04V89c.286-.091.561-.212.822-.36.1-.039.199-.078.294-.128v-.053a10.827 10.827 0 0 0 1.795-1.57l11.23-11.53 12.367-12.665c.508-.49.967-1.03 1.369-1.61.22-.238.457-.475.682-.722a15.154 15.154 0 0 0 2.564-3.653c.692-1.448 1.12-3.227.932-4.733a3.076 3.076 0 0 1-.042-.907c.084-.51.442-.935.506-1.446.08-.55-.183-.959-.22-1.48-.054-.789.414-1.693.375-2.486z" transform="translate(0 5)"/>
        <path fill="#FBD3AF" d="M68.567 57.98c.286-1.948 1.145-3.887 2.3-5.19 1.157-1.305 2.594-1.96 3.85-1.752a1.5 1.5 0 0 1 .905.445c.288.355.42.797.367 1.236-1.094.288-2.151.682-3.154 1.174a7.846 7.846 0 0 0-2.054 1.356 5.966 5.966 0 0 0-1.558 2.474c-.128.52-.286 1.033-.473 1.538-.157.347-.486.798-.75.733.065-.267.163-.525.292-.771.136-.405.228-.821.275-1.242z"/>
        <path fill="url(#d)" d="M113.924 160.824l-3.33-3.784a5.234 5.234 0 0 1-.851-1.167c-.316-.656-.316-1.377-.316-2.077.009-4.336.082-8.671.22-13.007.254-7.614.719-15.214 1.394-22.8.279-3.138 1.047-6.496 1.132-9.688l.783-.764c1.332-1.302 2.687-2.636 3.462-4.265.774-1.63.864-3.626-.27-5.071-1.619-2.063-4.892-2.234-7.701-2.197l-18.803.2-9.39.092c-.639 0-7.643-.393-7.482-.066.734 1.511.236 3.244.032 4.885-.204 1.64.108 3.615 1.736 4.38.73.342 1.588.364 2.412.377l24.456.415-.744.804c-6.42.262-12.865.51-19.28.046-1.567-.114-4.057-.75-5.063.716-1.37 1.999.956 4.057 2.917 4.613 1.316.37 2.325 1.614 3.705 1.618 3.994 0 4.942-.566 8.936-.555-5.703 6.15-7.943 11.669-13.637 17.827-2.94 3.18-5.982 6.437-10.022 8.416-1.658.813-3.494 1.42-4.826 2.62-1.331 1.202-1.96 3.295-.743 4.582.787.837 2.123 1.131 2.897 1.977 1.79 1.959-.618 4.928.062 7.39.421 1.527 2.022 2.605 3.711 3.014 1.69.408 3.477.268 5.219.123.846-.07 1.728-.15 2.454-.552.726-.402 2.617-1.555 2.319-2.27a5.754 5.754 0 0 0-2.514-2.783c-1.143-.644-2.205-1.015-2.233-2.227-.116-4.949 3.255-7.485 6.982-11.131 7.956-7.784 13.266-14.2 21.222-21.981-.755 10.195-1.255 17.889-1.397 28.113-.033 2.396-.402 4.45-1.955 6.4-1.182 1.485-2.656 2.635-2.514 4.452.147 1.862 3.617 3.354 5.484 4.173 1.612.703 3.128 1.581 4.775 2.214a17.47 17.47 0 0 0 6.467 1.11 1.836 1.836 0 0 0 1.281-3.134c-.351-.342-.68-.698-.987-1.038z" transform="translate(0 5)"/>
        <path fill="#FBD3AF" d="M108.157 157.18c0 .678 0 1.376.304 1.998.223.41.504.79.834 1.126l3.267 3.657a13.992 13.992 0 0 0 1.971 1.876c.386.287.553.77.424 1.222-.13.452-.531.784-1.015.84a17.577 17.577 0 0 1-7.996-.993c-1.615-.611-3.102-1.46-4.683-2.138-1.828-.788-4.112-1.705-4.256-3.504-.142-1.76 1.88-2.953 3.04-4.387 1.524-1.883 1.586-4.364 1.618-6.68.171-12.078 1.103-24.133 2.035-36.181.064-.836.142-1.71.633-2.42 1.307-1.907 6.41-2.46 6.531.34.149 3.461-.788 7.203-1.1 10.663a394.553 394.553 0 0 0-1.371 22.023c-.15 4.184-.228 8.37-.236 12.559z"/>
        <path fill="#FBD3AF" d="M99.187 113.188c1.341-.06 2.704-.119 4.016.163 1.31.283 2.6.95 3.298 2.049s.703 2.671-.236 3.6l-23.351-.066c-1.283 0-2.6 0-3.817-.38-1.823-.55-3.99-2.606-2.713-4.604.936-1.466 3.25-.828 4.712-.715 6.018.471 12.067.217 18.09-.047z"/>
        <path fill="#FBD3AF" d="M106.914 103.003c2.655-.029 5.75.135 7.28 2.111 1.073 1.384.987 3.304.256 4.863-.73 1.559-2.012 2.838-3.271 4.09l-30.704 30.457c-3.523 3.493-7.265 7.496-7.157 12.24.026 1.162.387 2.446 1.468 3.057 1.081.612 2.822.56 3.27 1.651.281.688-.205 1.476-.881 1.86-.676.385-1.52.461-2.32.529-1.647.137-3.338.273-4.934-.118s-3.11-1.428-3.51-2.889c-.642-2.36 1.636-5.205-.057-7.085-.73-.813-1.994-1.092-2.738-1.898-1.152-1.242-.557-3.24.702-4.39 1.26-1.151 2.996-1.732 4.564-2.512 3.82-1.897 6.694-5.022 9.466-8.079l21.903-24.018-23.116-.397c-.78-.013-1.59-.035-2.28-.363-1.542-.731-1.834-2.62-1.64-4.199.193-1.578.66-3.231-.034-4.681-.15-.314 6.47.07 7.074.063l8.89-.1 17.77-.192z"/>
        <path fill="url(#e)" d="M22.303 1.252c.918.866 1.19 2.205 1.11 3.444-.082 1.238-.464 2.439-.66 3.666-.276 1.795.036 3.94 1.645 4.868.947.546 2.115.532 3.215.503l25.475-.7c.863-.025 1.858 0 2.392.673.38.467.4 1.122.404 1.707l.09 18.398c-8.293-.106-16.58.122-24.864.684-7.028.478-14.444 1.122-20.745-1.911C5.215 30.1 1.39 25.18.351 19.699-.687 14.218 1.081 8.3 4.983 4.204 7.2 1.876 9.924.325 13.198.781c2.833.377 6.716-1.782 9.105.47z" transform="translate(24 87)"/>
        <path fill="#5C6BC0" d="M46.471 88.963c.88.797 1.15 2.035 1.073 3.178-.077 1.143-.44 2.25-.631 3.383-.268 1.655.035 3.636 1.588 4.491.914.503 2.044.492 3.107.463l24.606-.644c.833-.022 1.795 0 2.311.613.367.432.387 1.028.39 1.577L79 118.992a311.1 311.1 0 0 0-24.015.632c-6.778.442-13.951 1.036-20.037-1.772-4.974-2.292-8.667-6.831-9.667-11.889-1-5.058.704-10.518 4.474-14.296 2.142-2.148 4.771-3.58 7.935-3.16 2.724.368 6.475-1.623 8.781.456z"/>
        <path fill="url(#f)" d="M51.16 58.048c-1.042-1.629-2.762-2.935-4.303-4.316-1.54-1.381-2.97-2.959-3.204-4.76-.1-.749 0-1.547-.41-2.225-.461-.763-1.467-1.235-2.43-1.649-.345-.148-.869-.406-1.51-.709-2.088-2.455-4.88-4.789-8.27-4.331-3.392.457-5.322 3.913-4.998 6.89.324 2.977 2.203 5.626 3.694 8.326l.082.155c-.613 9.59-.515 19.213.293 28.787 4.01.657 8.076.902 12.134.732 1.613-.067 3.361-.25 4.487-1.13.982-.766 1.262-1.893 1.458-2.952.812-4.403.9-8.912.26-13.345-.102-.71-.217-1.452.126-2.117.465-.884 1.65-1.436 2.414-2.21 1.436-1.43 1.217-3.518.176-5.146z" transform="translate(0 5)"/>
        <path fill="#6C63FF" d="M41.12 50.873c.937.405 1.916.866 2.366 1.616.402.671.304 1.447.4 2.18.228 1.766 1.624 3.313 3.122 4.667 1.498 1.354 3.176 2.645 4.179 4.233 1.002 1.588 1.226 3.643-.18 5.056-.747.75-1.898 1.28-2.353 2.166-.336.65-.228 1.38-.123 2.075.623 4.347.538 8.76-.254 13.082-.19 1.04-.456 2.142-1.42 2.894-1.096.866-2.8 1.042-4.369 1.107a57.685 57.685 0 0 1-11.815-.717c-.984-11.73-.889-23.52.285-35.234.126-1.263.197-5.359 2.11-5.935 1.66-.505 6.575 2.17 8.052 2.81z"/>
        <path fill="#FBD3AF" d="M38.598 43.886c.807.673 1.637 1.372 2.096 2.286.637 1.277.112 3.43-.079 4.828-2.248-.843-4.148-2.353-6.396-3.199-.376-.14-.775-.302-.99-.623-.214-.322-.189-.673-.176-1.025.036-.917-.354-5.775.554-6.135.775-.302 4.32 3.294 4.991 3.868z"/>
        <path fill="#FBD3AF" d="M47.718 91.577c-1.923 1.044-4.486.027-5.813-1.644-1.326-1.672-1.77-3.81-2.285-5.844-1.348-5.326-3.457-10.436-5.418-15.577-2.004-5.251-3.183-10.456-4.584-15.84-.61-2.335-1.325-4.594.865-6.507 1.796-1.568 4.913-1.57 6.622.097 1.431 1.406 1.666 3.522 1.987 5.442 1.58 9.52 6.966 18.147 8.908 27.607"/>
        <path fill="#FBD3AF" d="M47.009 81.96C54.108 74.997 63.505 66.596 69.794 59c1.042.565 2.1 1.144 2.925 1.958.825.814 1.398 1.918 1.26 3.028-.14 1.152-1 2.105-1.82 2.981L60.423 79.513 49.761 90.911c-.788.84-1.626 1.717-2.761 2.089"/>
        <path fill="#B71C1C" d="M51 29.035L46.438 28 43 29.655l.373.345 3.13-1L51 30z"/>
        <path fill="#C62828" d="M46.227 33.345a2.98 2.98 0 0 1 1.773.55c-1.347.246-2.719.06-4-.544a4.036 4.036 0 0 1 2.246-.305"/>
        <path fill="#C62828" d="M44 32.952c.021-.034 1.122.058 1.253.047a5.816 5.816 0 0 0 1.32-.261 6.13 6.13 0 0 0 2.321-1.365c.262-.246 1.106-1.174 1.106-1.174A3.624 3.624 0 0 0 48.887 30a6.342 6.342 0 0 0-2.619.803A6.314 6.314 0 0 0 44 32.953z"/>
        <path fill="#B71C1C" d="M50 32s-5.576 1.6-6 1.456l.424.146s2.496.581 3.08.339L50 32z"/>
        <path fill="#002E4E" stroke="#002E4E" stroke-width="1.12" d="M60 48.215L60.622 47l21.65 8.825L84 58z"/>
        <path fill="#FBD3AF" d="M72.588 64.835a15.6 15.6 0 0 0 2.129-3.673c.58-1.453.929-3.241.774-4.758a3.736 3.736 0 0 1-.035-.903c.07-.514.358-.939.418-1.453.066-.554-.15-.964-.184-1.488-.048-.797.34-1.697.308-2.503-.03-.761-.459-1.165-.882-1.032-.424.133-.83.677-1.162 1.312-.33.634-.603 1.343-.925 1.986-.32.643-.706 1.232-1.132 1.447-.332.167-.654.088-.979.088-.38-.02-.743.182-.967.54-.47.73-.482 1.959-.74 2.96a13.507 13.507 0 0 1-.73 1.879A5.307 5.307 0 0 0 68 61.255c.015.391.08.778.194 1.147l.725 2.751c.205.779.387 2.12.71 2.695.194.339.343.048.639-.261.264-.276.527-.561.788-.856a31.281 31.281 0 0 0 1.532-1.896z"/>
        <path fill="url(#g)" d="M113.48 19L69 72.966 74.96 77 119 22.351z" transform="translate(0 5)"/>
        <path fill="url(#h)" d="M118.816 73.816l-15.239-23.208 3.146-3.659L101.83 44l-8.396 10.312 4.457 2.903 2.42-2.81 10.879 19.411H84V77h45v-3.184z" transform="translate(0 5)"/>
        <path fill="#C5CAE9" d="M70.053 77.113l43.574-52.973 4.432 3.018L74.962 80.8z"/>
        <path fill="#1A237E" d="M100.795 48.645l4.708 2.877-8.494 10.002-4.284-2.83z"/>
        <path fill="#1A237E" d="M102.477 55.084l14.782 23.913-5.786.352-12.319-20.872z"/>
        <path fill="#1A237E" d="M83.653 78.79h43.267v2.011H83.653z"/>
        <path fill="url(#i)" d="M72 76v4.189h7.966v4.868h5.3v62.754h-3.791v5.866h4.29V165h5.921v-11.323h39.185V165h5.921v-11.323h4.233v-5.866h-4.164V85.06h5.678V80.19H152v-4.189L72 76zm58.842 71.81H91.94V85.337h38.903v62.475z" transform="translate(0 5)"/>
        <path fill="#536DFE" d="M73.191 81.039h78.622v4.134H73.191z"/>
        <path fill="#1A237E" d="M81.016 85.175h61.498v4.804H81.016zM86.223 89.979h5.457v63.022h-5.457zM131.849 89.979h5.083v63.022h-5.083zM82.502 153.001h58.522v4.693H82.502z"/>
        <path fill="#1A237E" d="M132.154 157.693h4.711v11.174h-4.711zM86.719 157.693h4.711v11.174h-4.711z"/>
        <path fill="#6C63FF" d="M31.76 45.06c-3.231.467-5.033 3.98-4.726 7.006.306 3.027 2.083 5.721 3.483 8.467 3.106 6.103 4.47 12.83 5.802 19.467 3.68-4.36 7.484-8.975 8.449-14.444.81-4.587-.561-9.315-3.15-13.23-2-3.024-5.374-7.922-9.858-7.266z"/>
        <path fill="#C62828" d="M49.067 22.283c.079 1.821 1.253 3.57 2.985 4.452a6.362 6.362 0 0 0 5.686-.04l.236 1.834c.917.204 1.66.874 1.959 1.766H65c-2.252-.25-3.966-2.532-3.426-4.558-1.787.95-4.221.72-5.763-.54-1.543-1.26-2.076-3.459-1.26-5.202a81.61 81.61 0 0 1-19.7-7.987c-2.004-1.142-4.373-2.415-6.567-1.623-1.31.473-2.723 1.64-3.884.907-.73-.459-.802-1.419-1.307-2.087-.945-1.254-2.952-1.104-4.609-1.055-1.657.048-3.802-.625-3.776-2.15a2.985 2.985 0 0 0 .795 3.483 3.672 3.672 0 0 0 3.836.468l1.183 3.09c-4.72.686-8.735 4.38-9.474 8.722-.738 4.34 1.836 8.995 6.094 10.988-2.163-.562-4.333.726-6.146 1.951L2 40.77c3.428.844 7.35-.419 9.458-3.043.496-.616 1.007-1.364 1.833-1.454.97-.109 1.723.75 2.644 1.05 1.322.442 2.71-.335 4.006-.836a11.03 11.03 0 0 1 9.118.62c2.706 1.51 4.552 4.25 4.817 7.15.099 1.104 0 2.239.456 3.254.38.836 1.101 1.496 1.597 2.286.776 1.256.895 2.768 1.542 4.09.648 1.322 2.203 2.514 3.67 1.986-.704.1-1.132-.766-.969-1.403.163-.638.65-1.181.778-1.826.203-1.017-.511-1.968-1.07-2.869-1.81-2.891-2.259-6.312-2.67-9.627-.16-1.269-.314-2.575.056-3.805s1.393-2.386 2.765-2.58c-2.157 1.523-1.696 5.171.782 6.2.882.366 1.946.454 2.616 1.103.75.718.72 1.85.58 2.836-.142.987-.33 2.066.22 2.925.548.858 2.203 1.085 2.61.163 1.322-2.969-1.936-5.915-2.556-9.069-.356-1.818.19-3.677.177-5.517-.018-2.309-2.719-3.832-2.408-5.586.39-2.32 4.893-4.191 7.015-4.534z"/>
        <g>
            <path fill="url(#j)" d="M22.343.085S3.798 3.147.193 19.81c0 0 4.128-1.846 8.398 2.362 0 0-.793-6.83 16.822-19.998L22.343.085z" transform="translate(23 17.749)"/>
            <path fill="url(#k)" d="M.878 4.888c1.3 2.157 3.146 3.54 4.125 3.087.978-.453.717-2.568-.584-4.725C3.12 1.094.295.164.295.164s-.717 2.568.583 4.724z" transform="translate(42.662 10.75)"/>
            <path fill="url(#l)" d="M.916 4.884c1.3 2.157 3.146 3.54 4.125 3.086.978-.452.717-2.568-.584-4.724C3.157 1.089.333.16.333.16s-.717 2.567.583 4.724z" transform="translate(44.226 9)"/>
            <path fill="url(#m)" d="M5.601 1.024C3.111-.07.686-.247.197.62c-.49.869 1.117 2.452 3.615 3.541 2.498 1.09 5.404.403 5.404.403S8.09 2.113 5.601 1.024z" transform="translate(49.812 16.437)"/>
            <path fill="url(#n)" d="M5.601 1.113C3.111.02.686-.157.197.711c-.49.868 1.117 2.452 3.615 3.541 2.498 1.09 5.404.402 5.404.402S8.09 2.203 5.601 1.114z" transform="translate(49.812 17.749)"/>
            <path fill="url(#o)" d="M.58 4.84c.825.853 2.74.622 4.282-.52C6.404 3.178 6.984 1.562 6.16.709c-.824-.853-2.74-.622-4.281.52C.337 2.371-.241 3.987.581 4.84z" transform="translate(45.79 15.124)"/>
        </g>
        <g fill="#6C63FF">
            <path d="M43.339 17.293S26.3 20.15 23 35.7c0 0 3.793-1.725 7.715 2.205 0 0-.728-6.376 15.451-18.664l-2.827-1.95z"/>
            <path d="M41.687 15.244c1.194 2.012 2.89 3.303 3.788 2.88.898-.422.66-2.396-.537-4.41-1.196-2.012-3.788-2.88-3.788-2.88s-.658 2.397.537 4.41z"/>
            <path d="M43.159 13.606c1.194 2.013 2.89 3.303 3.788 2.88.898-.422.66-2.396-.537-4.409s-3.788-2.88-3.788-2.88-.658 2.396.537 4.409zM52.592 16.943c-2.288-1.017-4.51-1.186-4.963-.377-.453.808 1.034 2.288 3.322 3.305 2.288 1.017 4.963.377 4.963.377s-1.034-2.292-3.322-3.305z"/>
            <path d="M52.592 18.252c-2.288-1.017-4.51-1.185-4.963-.377-.453.808 1.034 2.288 3.322 3.305 2.288 1.017 4.963.377 4.963.377s-1.034-2.288-3.322-3.305z"/>
            <path d="M44.287 19.28c.757.798 2.517.58 3.932-.486 1.414-1.066 1.949-2.574 1.192-3.371-.757-.798-2.517-.58-3.931.486-1.415 1.066-1.95 2.576-1.193 3.371z"/>
        </g>
    </g>
</svg>
