<svg xmlns="http://www.w3.org/2000/svg" width="320" height="568" viewBox="0 0 320 568">
    <g fill="none" fill-rule="evenodd">
        <path fill="#7150F5" d="M0 0h320v568H0z"/>
        <path fill="#FFF" d="M280.328 497.339l2.973 17.64L268 510.3zM319.91 455.895l-10.233-17.328 17.956-1.256zM298.918 385.52l7.964-16.018 9.629 12.778zM304.503 298.603l11.02-15.486 7.98 15.01zM291.94 231.546l12.754 9.075-12.361 6.572zM289.16 120.917l15.17 14.872-17.966 6.186zM274.9 47.943l12.688 22.367-22.969 1.203zM222.155 557.314l6.507 14.236-13.992-.489zM223.695 474.798l-19.497 14.996L200 468.198zM236.68 432.903L243.09 408l17.358 15.09zM244.344 267.622l11.587 15.066-16.687 3.243zM193.558 234.28l6.435 15.486-14.964-1.047zM243.302 105.933l7.462 19.889-18.896-1.986zM224.234 36.761l1.206-20.088 15.589 9zM117.356 520.478l.178-23.478 18.71 9.534zM154.762 440.724l14.85 4.95-9.9 9.9zM107.192 424.119l3.28-22.119 16.383 11.472zM126.478 263.437l-14.272 18.643L103 263.206zM164.29 203.906l-20.936 7.854 2.09-19.89zM145.567 157.714l-9.89 17.526-10.065-14.922zM163.388 34.611l-12.637-19.787 20.885-2.195zM17.654 564.567l19.006.145-7.718 15.147zM61.714 480.247l-15.272 20.688L36 480.442zM28.732 433.94L48.95 422l1.465 20.949zM37.66 304.012l-18.1 14.954-4.724-20.461zM48.293 245.193l-24.596.242 9.644-19.773zM57.709 113.72l-13.053 15.317-7.033-16.57zM13.397 33.911l12.152-11.558 4.385 14.345z" opacity=".065"/>
    </g>
</svg>
