<svg xmlns="http://www.w3.org/2000/svg" width="32" height="32" viewBox="0 0 32 32">
    <g fill="none" fill-rule="evenodd">
        <circle cx="16" cy="16" r="16" fill="#F4F3FC"/>
        <path fill="#7150F5" fill-rule="nonzero" d="M23.789 14.872l-7.28-6.678A.755.755 0 0 0 16 8c-.19 0-.374.07-.51.194l-7.279 6.678a.622.622 0 0 0 0 .934.767.767 0 0 0 1.019 0L16 9.48l6.77 6.327c.14.13.325.194.51.194a.753.753 0 0 0 .509-.194.623.623 0 0 0 0-.934zM20.664 16c-.337 0-.664.333-.664.667v6.001h-2v-4.001c0-.334-.333-.667-.66-.667h-2.675c-.332 0-.665.333-.665.667v4.001h-2v-6.001a.655.655 0 0 0-.663-.667c-.37 0-.67.287-.67.667v6.001c0 .665.666 1.332 1.333 1.332h2c.667 0 1.335-.667 1.335-1.333l.01-3.334h1.335l-.01 3.335C16.668 23.333 17.334 24 18 24h2c.667 0 1.333-.68 1.333-1.332v-6.001c0-.334-.333-.667-.67-.667z"/>
    </g>
</svg>
